<?xml version="1.0" encoding="UTF-8"?>
<svg width="120px" height="112px" viewBox="0 0 120 112" version="1.1" xmlns="http://www.w3.org/2000/svg" xmlns:xlink="http://www.w3.org/1999/xlink">
    <!-- Generator: Sketch 56.3 (81716) - https://sketch.com -->
    <title>checkmark</title>
    <desc>Created with Sketch.</desc>
    <g id="illustrations" stroke="none" stroke-width="1" fill="none" fill-rule="evenodd">
        <g id="checkmark" transform="translate(-30.000000, -37.000000)" fill-rule="nonzero">
            <g transform="translate(30.000000, 37.000000)" id="n-check">
                <g>
                    <path d="M104.505517,38.282069 C106.495862,43.7731034 107.586207,49.6924138 107.586207,55.862069 C107.586207,84.3827586 84.3827586,107.586207 55.862069,107.586207 C27.3413793,107.586207 4.13793103,84.3827586 4.13793103,55.862069 C4.13793103,27.3413793 27.3413793,4.13793103 55.862069,4.13793103 C67.62,4.13793103 78.4696552,8.08965517 87.1675862,14.7248276 L90.3248276,11.9462069 C80.8241379,4.47310345 68.8593103,0 55.862069,0 C25.0593103,0 0,25.0593103 0,55.862069 C0,86.6648276 25.0593103,111.724138 55.862069,111.724138 C86.6648276,111.724138 111.724138,86.6648276 111.724138,55.862069 C111.724138,48.4924138 110.275862,41.4558621 107.671034,35.0068966 L104.505517,38.282069 Z" id="Path" fill="#170A59"></path>
                    <polygon id="Path" fill="#F8DD74" points="111.724138 4.13793103 60 49.6551724 37.2413793 33.1034483 28.9655172 41.3793103 60 72.4137931 120 10.3448276"></polygon>
                </g>
            </g>
        </g>
    </g>
</svg>