<?xml version="1.0" encoding="UTF-8"?>
<svg width="42px" height="48px" viewBox="0 0 42 48" version="1.1" xmlns="http://www.w3.org/2000/svg" xmlns:xlink="http://www.w3.org/1999/xlink">
    <!-- Generator: Sketch 56.3 (81716) - https://sketch.com -->
    <title>vegs-white</title>
    <desc>Created with Sketch.</desc>
    <g id="icons" stroke="none" stroke-width="1" fill="none" fill-rule="evenodd">
        <g id="vegs-white" transform="translate(-11.000000, -10.000000)" fill="#FDFDFD" fill-rule="nonzero">
            <g transform="translate(8.000000, -3.000000)">
                <g id="Group-9" transform="translate(23.799251, 23.481259) rotate(-322.000000) translate(-23.799251, -23.481259) translate(6.799251, 7.481259)">
                    <g id="carrot" transform="translate(0.030220, 0.513736)">
                        <path d="M25.4821142,2.40720342 C25.4610404,2.43654777 25.4402327,2.46616427 25.4196905,2.49605311 C24.2160064,1.73221795 22.7927555,1.35173077 21.3444725,1.44256136 C19.3898269,1.55913919 17.5739304,2.50892674 16.3638095,4.0494707 L14.8518736,5.97336264 L18.2183269,9.33910073 C18.4979707,9.61874451 18.4979707,10.0707518 18.2183269,10.3503956 C18.0788626,10.4898599 17.8957711,10.5599496 17.7126795,10.5599496 C17.5295879,10.5599496 17.3464963,10.4898599 17.2070321,10.3503956 L13.962163,7.10624176 L4.15317491,19.5915137 L6.22725916,21.665598 C6.50690293,21.9452418 6.50690293,22.3972491 6.22725916,22.6768929 C6.08779487,22.8163571 5.9047033,22.8864469 5.72161172,22.8864469 C5.53852015,22.8864469 5.35542857,22.8163571 5.21596429,22.6768929 L3.26274908,20.7236777 L0.819620879,23.8333736 C-0.379056777,25.3588984 -0.248174908,27.5438388 1.1235815,28.91488 C1.86739103,29.6586896 2.84936264,30.0370311 3.83634066,30.0370311 C4.66955037,30.0370311 5.50633608,29.766685 6.20508791,29.2174103 L16.1235018,21.4245751 L13.7990971,19.1001703 C13.5194533,18.8205266 13.5194533,18.3685192 13.7990971,18.0888755 C14.0787408,17.8092317 14.5307482,17.8092317 14.8103919,18.0888755 L17.256381,20.5348645 L25.9889908,13.6739368 C27.5295348,12.4645311 28.4793223,10.6486346 28.5966154,8.69327381 C28.7139084,6.737913 27.9858333,4.82260348 26.6012033,3.43725824 C26.5847537,3.42080861 26.5668736,3.40793498 26.550424,3.39148535 C26.5710098,3.36014301 26.5919859,3.32918858 26.6133548,3.29862118 C27.498466,2.03250239 26.6430443,0.790655626 25.4821142,2.40720342 Z" id="Path"></path>
                        <path d="M31.4688645,0 C28.5594249,0 26.57188,0.819620879 25.4196905,2.49605311 C24.2160064,1.73221795 27.9858333,4.82260348 26.6012033,3.43725824 C26.5847537,3.42080861 26.5668736,3.40793498 26.550424,3.39148535 C27.423685,2.06192582 28.9992738,1.43040293 31.4688645,1.43040293 C31.8636557,1.43040293 32.1840659,1.11070788 32.1840659,0.715201465 C32.1840659,0.319695055 31.8636557,0 31.4688645,0 Z" id="Path"></path>
                    </g>
                </g>
                <path d="M27,29 L27,36 C27,36.5522847 26.5522847,37 26,37 C25.4477153,37 25,36.5522847 25,36 L25,29 L23,29 L23,36 C23,36.5522847 22.5522847,37 22,37 C21.4477153,37 21,36.5522847 21,36 L21,29 L19,29 L19,36 C19,36.5522847 18.5522847,37 18,37 C17.4477153,37 17,36.5522847 17,36 L17,29 L15,29 L15,37 C15,39.209139 16.790861,41 19,41 L19.948,41 L19.1,57.878 C19.0563618,58.5113931 19.2165002,59.1421352 19.557,59.678 C20.0942607,60.5026107 21.0118091,60.9999122 21.996,60.9999122 C22.9801909,60.9999122 23.8977393,60.5026107 24.435,59.678 C24.7754998,59.1421352 24.9356382,58.5113931 24.892,57.878 L24.052,41 L25,41 C27.209139,41 29,39.209139 29,37 L29,29 L27,29 Z" id="Path"></path>
            </g>
        </g>
    </g>
</svg>