<?xml version="1.0" encoding="UTF-8"?>
<svg width="46px" height="36px" viewBox="0 0 46 36" version="1.1" xmlns="http://www.w3.org/2000/svg" xmlns:xlink="http://www.w3.org/1999/xlink">
    <!-- Generator: Sketch 56.3 (81716) - https://sketch.com -->
    <title>butter</title>
    <desc>Created with Sketch.</desc>
    <g id="icons" stroke="none" stroke-width="1" fill="none" fill-rule="evenodd">
        <g id="butter" transform="translate(-9.000000, -14.000000)" fill-rule="nonzero">
            <g transform="translate(9.000000, 14.000000)" id="Path">
                <path d="M21,10 L21,21 C21,23.7614237 18.7614237,26 16,26 C13.2385763,26 11,23.7614237 11,21 L11,10 L0,10 L0,32 C0,34.209139 1.790861,36 4,36 L42,36 C44.209139,36 46,34.209139 46,32 L46,10 L21,10 Z" fill="#170A59"></path>
                <path d="M45.707,6.293 L39.707,0.293 C39.5195073,0.105450625 39.2651948,0 39,0 L7,0 C6.73480519,0 6.48049273,0.105450625 6.293,0.293 L0.293,6.293 C0.00709208442,6.57899425 -0.078421906,7.00903662 0.0763220219,7.38265456 C0.23106595,7.7562725 0.595604102,7.99991365 1,8 L13,8 L13,21 C13,22.6568542 14.3431458,24 16,24 C17.6568542,24 19,22.6568542 19,21 L19,8 L45,8 C45.4043959,7.99991365 45.7689341,7.7562725 45.923678,7.38265456 C46.0784219,7.00903662 45.9929079,6.57899425 45.707,6.293 Z" fill="#F8DD74"></path>
            </g>
        </g>
    </g>
</svg>