<?xml version="1.0" encoding="UTF-8"?>
<svg width="46px" height="48px" viewBox="0 0 46 48" version="1.1" xmlns="http://www.w3.org/2000/svg" xmlns:xlink="http://www.w3.org/1999/xlink">
    <!-- Generator: Sketch 56.3 (81716) - https://sketch.com -->
    <title>dairy</title>
    <desc>Created with Sketch.</desc>
    <g id="icons" stroke="none" stroke-width="1" fill="none" fill-rule="evenodd">
        <g id="dairy" transform="translate(-9.000000, -8.000000)" fill-rule="nonzero">
            <g transform="translate(9.000000, 8.000000)" id="Shape">
                <path d="M46,8 C46,7.44727 45.55273,7 45,7 L35,7 L35,2 C35,0.89551 34.10449,0 33,0 C31.89551,0 31,0.89551 31,2 L31,7 L15,7 L15,2 C15,0.89551 14.10449,0 13,0 C11.89551,0 11,0.89551 11,2 L11,7 L1,7 C0.44727,7 0,7.44727 0,8 C0,12.96289 4.03711,17 9,17 L9.04755,17 L8.05567,26.42285 C8.05005,26.47552 8.06739,26.52325 8.06989,26.57458 C8.90497,26.20734 9.82562,26 10.79492,26 L35.20508,26 C36.17438,26 37.09503,26.20734 37.93012,26.57458 C37.93262,26.52325 37.94996,26.47552 37.94434,26.42285 L36.95245,17 L37,17 C41.96289,17 46,12.96289 46,8 Z M16,21 C14.89545,21 14,20.10455 14,19 C14,17.89539 14.89545,17 16,17 C17.10455,17 18,17.89539 18,19 C18,20.10455 17.10455,21 16,21 Z M30,21 C28.89545,21 28,20.10455 28,19 C28,17.89539 28.89545,17 30,17 C31.10455,17 32,17.89539 32,19 C32,20.10455 31.10455,21 30,21 Z" fill="#170A59"></path>
                <path d="M35.20508,28 L10.79492,28 C8.15137,28 6,30.15137 6,32.79492 L6,37.51269 C6,43.29492 10.70508,48 16.4873,48 L29.5127,48 C35.29492,48 40,43.29492 40,37.5127 L40,32.79493 C40,30.15137 37.84863,28 35.20508,28 Z M16,41 C14.34314,41 13,39.65686 13,38 C13,36.34314 14.34314,35 16,35 C17.65686,35 19,36.34314 19,38 C19,39.65686 17.65686,41 16,41 Z M30,41 C28.34314,41 27,39.65686 27,38 C27,36.34314 28.34314,35 30,35 C31.65686,35 33,36.34314 33,38 C33,39.65686 31.65686,41 30,41 Z" fill="#F8DD74"></path>
            </g>
        </g>
    </g>
</svg>