<?xml version="1.0" encoding="UTF-8"?>
<svg width="41px" height="41px" viewBox="0 0 41 41" version="1.1" xmlns="http://www.w3.org/2000/svg" xmlns:xlink="http://www.w3.org/1999/xlink">
    <!-- Generator: Sketch 56.3 (81716) - https://sketch.com -->
    <title>fish</title>
    <desc>Created with Sketch.</desc>
    <g id="icons" stroke="none" stroke-width="1" fill="none" fill-rule="evenodd">
        <g id="fish" transform="translate(-12.000000, -11.000000)" fill-rule="nonzero">
            <g transform="translate(12.000000, 11.000000)">
                <path d="M25.285,15.651 C21.978,12.344 19.967,8.172 18.956,2.54 C15.518,1.694 11.217,2.107 8.657,4.669 C8.409,4.917 8.309,5.276 8.393,5.617 C8.478,5.957 8.735,6.228 9.07,6.332 C10.542,6.785 12.069,8.029 13.238,9.709 C8.795,17.071 9.789,25.526 10.342,28.532 L1.608,29.502 C1.226,29.545 0.902,29.803 0.775,30.165 C0.647,30.528 0.74,30.932 1.011,31.203 L9.749,39.94 C9.939,40.13 10.195,40.233 10.456,40.233 C10.567,40.233 10.679,40.214 10.787,40.176 C11.149,40.049 11.407,39.725 11.45,39.343 L12.42,30.612 C13.609,30.834 15.643,31.126 18.127,31.126 C23.113,31.126 29.894,29.947 35.19,24.649 C35.932,23.907 36.569,23.118 37.116,22.296 C32.643,21.295 28.756,19.124 25.285,15.651 Z" id="Path" fill="#170A59"></path>
                <path d="M26.699,14.237 C30.049,17.586 33.806,19.623 38.16,20.476 C41.967,12.713 39.103,3.181 38.955,2.704 C38.856,2.385 38.603,2.136 38.283,2.041 C37.874,1.921 28.646,-0.718 21.012,2.617 C21.978,7.664 23.738,11.276 26.699,14.237 Z M29.5,6 C30.328,6 31,6.672 31,7.5 C31,8.328 30.328,9 29.5,9 C28.672,9 28,8.328 28,7.5 C28,6.672 28.672,6 29.5,6 Z" id="Shape" fill="#F8DD74"></path>
            </g>
        </g>
    </g>
</svg>