<?xml version="1.0" encoding="UTF-8"?>
<svg width="31px" height="46px" viewBox="0 0 31 46" version="1.1" xmlns="http://www.w3.org/2000/svg" xmlns:xlink="http://www.w3.org/1999/xlink">
    <!-- Generator: Sketch 56.3 (81716) - https://sketch.com -->
    <title>fizzy-drink</title>
    <desc>Created with Sketch.</desc>
    <g id="icons" stroke="none" stroke-width="1" fill="none" fill-rule="evenodd">
        <g id="fizzy-drink" transform="translate(-17.000000, -9.000000)" fill-rule="nonzero">
            <g transform="translate(16.000000, 9.000000)">
                <path d="M14,1 C14,0.44771525 13.5522847,0 13,0 L6,0 C5.44771525,0 5,0.44771525 5,1 L5,4 L14,4 L14,1 Z" id="Path" fill="#F8DD74"></path>
                <path d="M18.653,42.0000088 L25.347,42.0000088 C25.8656146,42.0021514 26.2998101,41.6074677 26.347,41.091 L27.256,31.091 C27.2816431,30.8104037 27.1877194,30.5320099 26.9973321,30.3242974 C26.8069448,30.1165848 26.5377632,29.9988307 26.256,29.9999914 L17.744,29.9999914 C17.4622368,29.9988307 17.1930552,30.1165848 17.0026679,30.3242974 C16.8122806,30.5320099 16.7183569,30.8104037 16.744,31.091 L17.653,41.091 C17.7001899,41.6074677 18.1343854,42.0021514 18.653,42.0000088 Z" id="Path" fill="#F8DD74"></path>
                <path d="M10.012,23.271 C9.93586512,22.4316243 10.2163246,21.5989376 10.7847621,20.9766621 C11.3531997,20.3543866 12.1571785,19.9999255 13,20 L17.483,20 C17.0100189,17.0001514 16.2326728,14.0562883 15.163,11.214 C14.6025089,9.86285031 14.2118571,8.4473674 14,7 L14,6 L5,6 L5,7 C4.78814292,8.4473674 4.39749114,9.86285031 3.837,11.214 C2.772,14.292 1.313,18.506 1.313,22.853 C1.30204034,25.7410023 1.5045923,28.6258636 1.919,31.484 C2.11640911,32.7318866 2.22800427,33.9918427 2.253,35.255 C2.2313863,36.6406138 1.99005252,38.0140224 1.538,39.324 C1.22436323,40.1998926 1.04303753,41.1176434 1,42.047 C0.924492551,44.1472701 2.56013921,45.9138579 4.66,46 L12.821,46 C12.2666203,45.257641 11.9294119,44.3758445 11.847,43.453 L10.012,23.271 Z" id="Path" fill="#170A59"></path>
                <path d="M31.738,22.325 C31.5485195,22.1178858 31.2807118,21.9999914 31,21.9999914 L13,21.9999914 C12.7182368,21.9988307 12.4490552,22.1165848 12.2586679,22.3242974 C12.0682806,22.5320099 11.9743569,22.8104037 12,23.091 L13.835,43.271 C13.9684108,44.8211549 15.27014,46.0088577 16.826,46.0000492 L27.174,46.0000492 C28.7283264,46.0067669 30.0277111,44.8196157 30.161,43.271 L32,23.091 C32.0245466,22.8101503 31.9294044,22.5319866 31.738,22.325 Z M28.169,43.091 C28.1219806,43.6055545 27.6906981,43.9995603 27.174,44 L16.826,44 C16.3070348,44.0021057 15.872703,43.6068638 15.826,43.09 L14.1,24 L29.91,24 L28.169,43.091 Z" id="Shape" fill="#170A59"></path>
            </g>
        </g>
    </g>
</svg>