<?xml version="1.0" encoding="UTF-8"?>
<svg width="36px" height="44px" viewBox="0 0 36 44" version="1.1" xmlns="http://www.w3.org/2000/svg" xmlns:xlink="http://www.w3.org/1999/xlink">
    <!-- Generator: Sketch 56.3 (81716) - https://sketch.com -->
    <title>water</title>
    <desc>Created with Sketch.</desc>
    <g id="icons" stroke="none" stroke-width="1" fill="none" fill-rule="evenodd">
        <g id="water" transform="translate(-14.000000, -10.000000)" fill-rule="nonzero">
            <g transform="translate(13.000000, 10.000000)">
                <path d="M36,-1.25920498e-05 L2,-1.25920498e-05 C1.71651222,-0.00142137634 1.44574302,0.11754803 1.2550461,0.327314637 C1.06434919,0.537081243 0.971647302,0.817930032 1,1.1 L4.66,39.474 C4.8948491,42.0447604 7.05555275,44.009668 9.637,44.0000355 L28.363,44.0000355 C30.9444473,44.009668 33.1051509,42.0447604 33.34,39.474 L37,1.1 C37.0283527,0.817930032 36.9356508,0.537081243 36.7449539,0.327314637 C36.554257,0.11754803 36.2834878,-0.00142137634 36,-1.25920498e-05 Z M31.35,39.284 C31.2085289,40.8265582 29.9120224,42.0054372 28.363,42.0000187 L9.637,42.0000187 C8.08797765,42.0054372 6.79147112,40.8265582 6.65,39.284 L3.1,2 L34.9,2 L31.35,39.284 Z" id="Shape" fill="#170A59"></path>
                <path d="M9.637,40.0000063 L28.362,40.0000063 C28.8773017,39.9997541 29.3080464,39.6079712 29.357,39.095 L30.977,22.095 C31.0038433,21.8137476 30.9104605,21.5342645 30.7199362,21.3256405 C30.5294119,21.1170164 30.2595276,20.9987219 29.977,20.9999897 L8.018,20.9999897 C7.73547237,20.9987219 7.46558806,21.1170164 7.2750638,21.3256405 C7.08453954,21.5342645 6.99115671,21.8137476 7.018,22.095 L8.638,39.095 C8.6870963,39.6094997 9.12016628,40.0018204 9.637,40.0000063 Z" id="Path" fill="#F8DD74"></path>
            </g>
        </g>
    </g>
</svg>