<?xml version="1.0" encoding="UTF-8"?>
<svg width="117px" height="117px" viewBox="0 0 117 117" version="1.1" xmlns="http://www.w3.org/2000/svg" xmlns:xlink="http://www.w3.org/1999/xlink">
    <!-- Generator: Sketch 55.2 (78181) - https://sketchapp.com -->
    <title>404-error-message-server-not-found</title>
    <desc>Created with Sketch.</desc>
    <g id="app" stroke="none" stroke-width="1" fill="none" fill-rule="evenodd">
        <g id="404" transform="translate(-120.000000, -124.000000)" fill="#170A59" fill-rule="nonzero">
            <g id="Group" transform="translate(39.000000, 124.000000)">
                <g id="404-error-message-server-not-found" transform="translate(81.000000, 0.000000)">
                    <path d="M115.05,0 L1.95,0 C0.873044738,0 0,0.873044738 0,1.95 L0,115.05 C0,116.126955 0.873044738,117 1.95,117 L115.05,117 C116.126955,117 117,116.126955 117,115.05 L117,1.95 C117,0.873044738 116.126955,0 115.05,0 Z M33.15,113.1 L33.15,109.2 C33.15,101.67495 39.27495,95.55 46.8,95.55 L70.2,95.55 C77.72505,95.55 83.85,101.67495 83.85,109.2 L83.85,113.1 L33.15,113.1 Z M23.4,74.1 L19.5,74.1 L19.5,54.6 L23.4,54.6 L23.4,74.1 Z M27.3,42.9 L89.7,42.9 L89.7,91.65 L27.3,91.65 L27.3,42.9 Z M56.55,29.25 C56.55,28.1730447 57.4230447,27.3 58.5,27.3 C59.5769553,27.3 60.45,28.1730447 60.45,29.25 C60.45,30.3269553 59.5769553,31.2 58.5,31.2 C57.4230447,31.2 56.55,30.3269553 56.55,29.25 Z M93.6,54.6 L97.5,54.6 L97.5,74.1 L93.6,74.1 L93.6,54.6 Z M113.1,113.1 L87.75,113.1 L87.75,109.2 C87.7485944,103.894107 85.3428509,98.8746719 81.20775,95.55 L91.65,95.55 C92.7269553,95.55 93.6,94.6769553 93.6,93.6 L93.6,78 L99.45,78 C100.526955,78 101.4,77.1269553 101.4,76.05 L101.4,52.65 C101.4,51.5730447 100.526955,50.7 99.45,50.7 L93.6,50.7 L93.6,40.95 C93.6,39.8730447 92.7269553,39 91.65,39 L60.45,39 L60.45,34.7412 C62.7804518,33.919749 64.34208,31.7209764 64.35,29.25 C64.35,26.0247 61.7253,23.4 58.5,23.4 C55.2747,23.4 52.65,26.0247 52.65,29.25 C52.65,31.7889 54.28605,33.9339 56.55,34.7412 L56.55,39 L25.35,39 C24.2730447,39 23.4,39.8730447 23.4,40.95 L23.4,50.7 L17.55,50.7 C16.4730447,50.7 15.6,51.5730447 15.6,52.65 L15.6,76.05 C15.6,77.1269553 16.4730447,78 17.55,78 L23.4,78 L23.4,93.6 C23.4,94.6769553 24.2730447,95.55 25.35,95.55 L35.79225,95.55 C31.6571491,98.8746719 29.2514056,103.894107 29.25,109.2 L29.25,113.1 L3.9,113.1 L3.9,19.5 L113.1,19.5 L113.1,113.1 Z M113.1,15.6 L3.9,15.6 L3.9,3.9 L113.1,3.9 L113.1,15.6 Z" id="Shape"></path>
                    <polygon id="Path" points="8 8 12 8 12 12 8 12"></polygon>
                    <polygon id="Path" points="16 8 20 8 20 12 16 12"></polygon>
                    <polygon id="Path" points="23 8 27 8 27 12 23 12"></polygon>
                    <polygon id="Path" points="50 8 109 8 109 12 50 12"></polygon>
                    <polygon id="Path" points="49.3111481 69 52 66.3111481 46.6888519 61 52 55.6888519 49.3111481 53 44 58.3111481 38.6888519 53 36 55.6888519 41.3111481 61 36 66.3111481 38.6888519 69 44 63.6888519"></polygon>
                    <polygon id="Path" points="67.6888519 69 73 63.6888519 78.3111481 69 81 66.3111481 75.6888519 61 81 55.6888519 78.3111481 53 73 58.3111481 67.6888519 53 65 55.6888519 70.3111481 61 65 66.3111481"></polygon>
                    <path d="M70.0714286,88 C71.1365492,88 72,87.1045695 72,86 C72,78.282 65.9423571,72 58.5,72 C51.0576429,72 45,78.282 45,86 C45,87.1045695 45.8634508,88 46.9285714,88 L70.0714286,88 Z M58.5,76 C63.0800928,76.0061724 67.0262028,79.3474765 67.9480714,84 L49.05,84 C49.9733673,79.3475908 53.9197141,76.0067681 58.5,76 Z" id="Shape"></path>
                </g>
            </g>
        </g>
    </g>
</svg>