
<svg width="94px" height="94px" viewBox="0 0 94 94" version="1.1" xmlns="http://www.w3.org/2000/svg" xmlns:xlink="http://www.w3.org/1999/xlink">
    <defs>
        <circle id="path-1" cx="33" cy="33" r="33"></circle>
        <filter x="-37.9%" y="-25.8%" width="175.8%" height="175.8%" filterUnits="objectBoundingBox" id="filter-2">
            <feMorphology radius="1" operator="dilate" in="SourceAlpha" result="shadowSpreadOuter1"></feMorphology>
            <feOffset dx="0" dy="8" in="shadowSpreadOuter1" result="shadowOffsetOuter1"></feOffset>
            <feGaussianBlur stdDeviation="6" in="shadowOffsetOuter1" result="shadowBlurOuter1"></feGaussianBlur>
            <feColorMatrix values="0 0 0 0 0.0901960784   0 0 0 0 0.0392156863   0 0 0 0 0.349019608  0 0 0 0.235167177 0" type="matrix" in="shadowBlurOuter1"></feColorMatrix>
        </filter>
    </defs>
    <g id="app" stroke="none" stroke-width="1" fill="none" fill-rule="evenodd">
        <g id="take-a-picture---home" transform="translate(-133.000000, -509.000000)">
            <g id="section" transform="translate(0.000000, 515.000000)">
                <g id="btn_round" transform="translate(147.000000, 0.000000)">
                    <g id="Oval">
                        <use fill="black" fill-opacity="1" filter="url(#filter-2)" xlink:href="#path-1"></use>
                        <use fill="#170A59" fill-rule="evenodd" xlink:href="#path-1"></use>
                    </g>
                    <path d="M34.5,32.5 L48,32.5 C48.5522847,32.5 49,32.9477153 49,33.5 C49,34.0522847 48.5522847,34.5 48,34.5 L34.5,34.5 L34.5,48 C34.5,48.5522847 34.0522847,49 33.5,49 C32.9477153,49 32.5,48.5522847 32.5,48 L32.5,34.5 L19,34.5 C18.4477153,34.5 18,34.0522847 18,33.5 C18,32.9477153 18.4477153,32.5 19,32.5 L32.5,32.5 L32.5,19 C32.5,18.4477153 32.9477153,18 33.5,18 C34.0522847,18 34.5,18.4477153 34.5,19 L34.5,32.5 Z" id="Path" fill="#FFFFFF"></path>
                </g>
            </g>
        </g>
    </g>
</svg>