<?xml version="1.0" encoding="UTF-8"?>
<svg width="164px" height="164px" viewBox="0 0 164 164" version="1.1" xmlns="http://www.w3.org/2000/svg" xmlns:xlink="http://www.w3.org/1999/xlink">
    <!-- Generator: Sketch 56.3 (81716) - https://sketch.com -->
    <title>camera_icn</title>
    <desc>Created with Sketch.</desc>
    <g id="icons" stroke="none" stroke-width="1" fill="none" fill-rule="evenodd" opacity="0.4">
        <g id="camera" transform="translate(-33.000000, -30.000000)" fill="#170A59" fill-rule="nonzero">
            <g id="camera_icn" transform="translate(33.000000, 30.000000)">
                <path d="M151.1875,61.5000075 L151.1875,58.9375139 C151.1875,54.6991391 147.738375,51.2500143 143.5,51.2500143 L128.125,51.2500143 C123.886625,51.2500143 120.4375,54.6991391 120.4375,58.9375139 L120.4375,61.5000075 L117.313812,61.5000075 L114.612937,50.7067644 C113.194381,44.9987923 108.066412,40.9936898 102.184813,41.0000075 L61.8151875,41.0000075 C55.9332667,40.9943556 50.8049217,44.9989257 49.3845,50.7067644 L46.6861875,61.5000075 L12.8125,61.5000075 C5.7476875,61.5000075 0,67.2477009 0,74.3125129 L0,151.187508 C0,158.25232 5.7476875,164.000007 12.8125,164.000007 L151.1875,164.000007 C158.252312,164.000007 164,158.25232 164,151.187508 L164,74.3125129 C164,67.2477009 158.252312,61.5000075 151.1875,61.5000075 Z M125.5625,58.9375139 C125.5625,57.5222843 126.70977,56.375014 128.125,56.375014 L143.5,56.375014 C144.91523,56.375014 146.0625,57.5222843 146.0625,58.9375139 L146.0625,61.5000137 L125.5625,61.5000137 L125.5625,58.9375139 Z M5.125,74.3125129 C5.125,70.0741382 8.574125,66.6250134 12.8125,66.6250134 L20.5,66.6250134 C26.152875,66.6250134 30.75,71.2221381 30.75,76.8750128 C30.75,82.5278874 26.152875,87.1250134 20.5,87.1250134 L5.125,87.1250134 L5.125,74.3125129 Z M158.875,151.187508 C158.875,155.425883 155.425875,158.875008 151.1875,158.875008 L12.8125,158.875008 C9.56538357,158.8646 6.67597083,156.812461 5.5965,153.750008 L20.5,153.750008 C27.5648125,153.750008 33.3125,148.002321 33.3125,140.937509 L33.3125,98.4358865 L35.1241875,96.6241991 L31.5008125,93.0008243 L28.9383125,95.5633241 C28.4567588,96.043133 28.1865141,96.6952251 28.1875,97.3750115 L28.1875,140.937509 C28.1875,145.175884 24.738375,148.625012 20.5,148.625012 L5.125,148.625012 L5.125,92.2500118 L20.5,92.2500118 C28.9793125,92.2500118 35.875,85.3543248 35.875,76.8750128 C35.8737313,73.087653 34.4676135,69.4353992 31.92875,66.6250125 L48.6875,66.6250125 C49.8636118,66.6246885 50.888506,65.8237919 51.173125,64.6826385 L54.35575,51.9470143 C55.2101991,48.5236029 58.2867568,46.1223873 61.8151875,46.1250125 L102.184812,46.1250125 C105.7185,46.1250125 108.785812,48.520952 109.64425,51.9470143 L112.826875,64.6826385 C113.111494,65.8237919 114.136388,66.6246885 115.3125,66.6250125 L151.1875,66.6250125 C155.425875,66.6250125 158.875,70.0741382 158.875,74.3125129 L158.875,151.187508 Z" id="Shape"></path>
                <path d="M81.5,67 C57.5135882,67 38,86.5135882 38,110.5 C38,134.486412 57.5135882,154 81.5,154 C105.486412,154 125,134.486412 125,110.5 C125,86.5135882 105.486412,67 81.5,67 Z M81.5,148.882353 C60.3359706,148.882353 43.1176471,131.664029 43.1176471,110.5 C43.1176471,89.3359706 60.3359706,72.1176471 81.5,72.1176471 C102.664029,72.1176471 119.882353,89.3359706 119.882353,110.5 C119.882353,131.664029 102.664029,148.882353 81.5,148.882353 Z" id="Shape"></path>
                <path d="M81.5,77 C63.0286154,77 48,92.0286154 48,110.5 C48,128.971385 63.0286154,144 81.5,144 C99.9713846,144 115,128.971385 115,110.5 C115,92.0286154 99.9713846,77 81.5,77 Z M81.5,138.846154 C65.8709615,138.846154 53.1538462,126.129038 53.1538462,110.5 C53.1538462,94.8709615 65.8709615,82.1538462 81.5,82.1538462 C97.1290385,82.1538462 109.846154,94.8709615 109.846154,110.5 C109.846154,126.129038 97.1290385,138.846154 81.5,138.846154 Z" id="Shape"></path>
                <path d="M83.696655,98.4556382 L81.499889,99.9428673 L79.303123,98.4556382 C75.905203,96.1646339 71.3923623,96.6189191 68.5017143,99.5429621 C65.1660952,102.946091 65.1660952,108.453254 68.5017143,111.856383 L79.6833819,123.231464 C80.1641914,123.723397 80.8179675,124 81.499889,124 C82.1818105,124 82.8355867,123.723397 83.3163961,123.231464 L94.4980637,111.856383 C97.8339788,108.452358 97.8339788,102.944373 94.4980637,99.5403484 C91.606771,96.6171418 87.0939852,96.1639542 83.696655,98.4556382 L83.696655,98.4556382 Z M90.8624801,108.157913 L81.4973197,117.685066 L72.1321593,108.157913 C70.8990093,106.890568 70.8065256,104.880236 71.9179341,103.501268 C73.0293425,102.1223 74.9852925,101.820555 76.4486118,102.80232 L80.0687794,105.25664 C80.93052,105.845019 82.0564114,105.845019 82.918152,105.25664 L86.5408889,102.80232 C88.0044077,101.824679 89.957101,102.127356 91.067992,103.504043 C92.178883,104.88073 92.0902387,106.888103 90.8624801,108.157913 L90.8624801,108.157913 Z" id="Shape"></path>
                <circle id="Oval" cx="18" cy="77" r="5"></circle>
                <polygon id="Path" points="79 51 84 51 84 56 79 56"></polygon>
                <polygon id="Path" points="90 51 95 51 95 56 90 56"></polygon>
                <polygon id="Path" points="69 51 74 51 74 56 69 56"></polygon>
                <path d="M133.6,121 C139.3356,121 144,116.29075 144,110.5 C144,104.70925 139.3356,100 133.6,100 C132.16406,100 131,101.175253 131,102.625 L131,118.375 C131,119.824747 132.16406,121 133.6,121 Z M136.2,105.956125 C137.809007,106.89254 138.80047,108.624953 138.80047,110.5 C138.80047,112.375047 137.809007,114.10746 136.2,115.043875 L136.2,105.956125 L136.2,105.956125 Z" id="Shape"></path>
                <path d="M1.75288807,25.4221094 C10.6289227,28.4040341 17.5959659,35.3710773 20.5778906,44.2471119 C20.922066,45.2931122 21.898831,46 23,46 C24.101169,46 25.077934,45.2931122 25.4221094,44.2471119 C28.4040341,35.3710773 35.3710773,28.4040341 44.2471119,25.4221094 C45.2931122,25.077934 46,24.101169 46,23 C46,21.898831 45.2931122,20.922066 44.2471119,20.5778906 C35.3710773,17.5959659 28.4040341,10.6289227 25.4221094,1.75288807 C25.077934,0.706887839 24.101169,0 23,0 C21.898831,0 20.922066,0.706887839 20.5778906,1.75288807 C17.5959659,10.6289227 10.6289227,17.5959659 1.75288807,20.5778906 C0.706887839,20.922066 0,21.898831 0,23 C0,24.101169 0.706887839,25.077934 1.75288807,25.4221094 Z M23,8.94256736 C26.2368176,14.8824584 31.1175416,19.7631824 37.0574326,23 C31.1175416,26.2368176 26.2368176,31.1175416 23,37.0574326 C19.7631824,31.1175416 14.8824584,26.2368176 8.94256736,23 C14.8824584,19.7631824 19.7631824,14.8824584 23,8.94256736 Z" id="Shape"></path>
                <path d="M146.2,133 L135.8,133 C131.4996,133 128,136.53325 128,140.875 L128,146.125 C128,150.46675 131.4996,154 135.8,154 L146.2,154 C150.5004,154 154,150.46675 154,146.125 L154,140.875 C154,136.53325 150.5004,133 146.2,133 Z M148.8,146.125 C148.8,147.574747 147.63594,148.75 146.2,148.75 L135.8,148.75 C134.36406,148.75 133.2,147.574747 133.2,146.125 L133.2,140.875 C133.2,139.425253 134.36406,138.25 135.8,138.25 L146.2,138.25 C147.63594,138.25 148.8,139.425253 148.8,140.875 L148.8,146.125 Z" id="Shape"></path>
                <polygon id="Path" points="136 79 154 79 154 84 136 84"></polygon>
            </g>
        </g>
    </g>
</svg>