
<svg width="20px" height="20px" viewBox="0 0 20 20" version="1.1" xmlns="http://www.w3.org/2000/svg" xmlns:xlink="http://www.w3.org/1999/xlink">
    <g id="app" stroke="none" stroke-width="1" fill="none" fill-rule="evenodd">
        <g id="menu2" transform="translate(-312.000000, -27.000000)" fill="#FDFDFD" fill-rule="nonzero">
            <g id="close" transform="translate(312.000000, 27.000000)">
                <path d="M19.625,0.375 C19.125,-0.125 18.375,-0.125 17.875,0.375 L10,8.25 L2.125,0.375 C1.625,-0.125 0.875,-0.125 0.375,0.375 C-0.125,0.875 -0.125,1.625 0.375,2.125 L8.25,10 L0.375,17.875 C-0.125,18.375 -0.125,19.125 0.375,19.625 C0.625,19.875 0.875,20 1.25,20 C1.625,20 1.875,19.875 2.125,19.625 L10,11.75 L17.875,19.625 C18.125,19.875 18.5,20 18.75,20 C19,20 19.375,19.875 19.625,19.625 C20.125,19.125 20.125,18.375 19.625,17.875 L11.75,10 L19.625,2.125 C20.125,1.625 20.125,0.875 19.625,0.375 Z" id="Path"></path>
            </g>
        </g>
    </g>
</svg>