<?xml version="1.0" encoding="UTF-8"?>
<svg width="46px" height="36px" viewBox="0 0 46 36" version="1.1" xmlns="http://www.w3.org/2000/svg" xmlns:xlink="http://www.w3.org/1999/xlink">
    <!-- Generator: Sketch 56.3 (81716) - https://sketch.com -->
    <title>bread-white</title>
    <desc>Created with Sketch.</desc>
    <g id="icons" stroke="none" stroke-width="1" fill="none" fill-rule="evenodd">
        <g id="bread-white" transform="translate(-10.000000, -14.000000)" fill="#FDFDFD" fill-rule="nonzero">
            <g transform="translate(9.000000, 13.000000)" id="Path">
                <path d="M38,21 L10,21 C7.44393122,21.0025114 4.96753536,20.1106552 3,18.479 L3,33 C3,35.209139 4.790861,37 7,37 L41,37 C43.209139,37 45,35.209139 45,33 L45,18.479 C43.0324646,20.1106552 40.5560688,21.0025114 38,21 Z"></path>
                <path d="M38,1 C36.1966872,1.00405544 34.4363395,1.55076676 32.948,2.569 C33.7814364,4.74495492 33.8915437,7.13154938 33.262,9.375 C32.9495707,7.53338653 32.1708461,5.80242834 31,4.347 C28.0621037,0.692229869 22.8035388,-0.079921567 18.939,2.576 C19.7690049,4.75070687 19.8780334,7.13460932 19.25,9.376 C18.9451833,7.53399977 18.170199,5.80182383 17,4.347 C14.3665055,1.08454528 9.82908604,0.0727276649 6.05900207,1.90722237 C2.28891809,3.74171708 0.284993457,7.93650389 1.22697464,12.0220363 C2.16895583,16.1075688 5.80727989,19.00145 10,19.0000005 L38,19.0000005 C42.9705627,19.0000005 47,14.9705627 47,10 C47,5.02943725 42.9705627,1 38,1 Z"></path>
            </g>
        </g>
    </g>
</svg>