<?xml version="1.0" encoding="UTF-8"?>
<svg width="62px" height="53px" viewBox="0 0 62 53" version="1.1" xmlns="http://www.w3.org/2000/svg" xmlns:xlink="http://www.w3.org/1999/xlink">
    <!-- Generator: Sketch 56.3 (81716) - https://sketch.com -->
    <title>dessert-white</title>
    <desc>Created with Sketch.</desc>
    <g id="icons" stroke="none" stroke-width="1" fill="none" fill-rule="evenodd">
        <g id="dessert-white" transform="translate(-1.000000, -5.000000)" fill="#FDFDFD" fill-rule="nonzero">
            <g transform="translate(1.000000, 5.000000)">
                <g id="cupcake">
                    <path d="M32.4545455,14.3181818 L31.7997273,14.3181818 C33.4012941,13.2584774 34.3642837,11.4658684 34.3636364,9.54545455 C34.4984552,5.51404132 32.2569371,1.77817782 28.6363636,1.77635684e-15 C28.5293167,3.11766887 26.0267598,5.62022579 22.9090909,5.72727273 L8.59090909,5.72727273 C6.5328773,5.72220611 4.70463399,7.04026349 4.05910388,8.99444143 C3.41357377,10.9486194 4.09695207,13.0963491 5.75304545,14.3181818 L5.72727273,14.3181818 C2.56418739,14.3181819 1.20693246e-07,16.8823692 1.20693246e-07,20.0454545 C1.20693246e-07,23.2085399 2.56418739,25.7727273 5.72727273,25.7727273 L32.4545455,25.7727273 C35.6176308,25.7727273 38.1818182,23.2085399 38.1818182,20.0454545 C38.1818182,16.8823692 35.6176308,14.3181818 32.4545455,14.3181818 Z" id="Path"></path>
                    <path d="M33.1761818,28.0111364 C32.9947946,27.8018822 32.7314726,27.6818181 32.4545455,27.6818181 L5.72727273,27.6818181 C5.45043864,27.6818181 5.18722422,27.8019302 5.00588923,28.0111065 C4.82455423,28.2202828 4.74296228,28.4978803 4.78227273,28.7719091 L6.69136364,42.1355455 C6.75879465,42.6055998 7.16149729,42.9545455 7.63636364,42.9545455 L13.3636364,42.9545455 L13.3636364,35.3181818 C13.3636364,34.7910009 13.7910009,34.3636364 14.3181818,34.3636364 C14.8453627,34.3636364 15.2727273,34.7910009 15.2727273,35.3181818 L15.2727273,42.9545455 L22.9090909,42.9545455 L22.9090909,35.3181818 C22.9090909,34.7910009 23.3364555,34.3636364 23.8636364,34.3636364 C24.3908173,34.3636364 24.8181818,34.7910009 24.8181818,35.3181818 L24.8181818,42.9545455 L30.5454545,42.9545455 C31.0203209,42.9545455 31.4230235,42.6055998 31.4904545,42.1355455 L33.3995455,28.7719091 C33.4389156,28.4979276 33.3574179,28.2203477 33.1761818,28.0111364 L33.1761818,28.0111364 Z" id="Path"></path>
                </g>
                <g id="candy-2" transform="translate(30.144985, 10.540561)">
                    <polygon id="Path" points="17.4844249 19.9218251 13.181746 24.224504 16.7797602 31.4258922 21.0841287 27.1215238"></polygon>
                    <polygon id="Path" points="11.0527205 37.1529319 15.3567976 32.8488547 11.7587835 25.6474665 7.45301684 29.9532332"></polygon>
                    <path d="M6.02987948,31.3763705 L1.77485795,35.631392 C0.283846786,37.1224032 0.283846786,39.5401695 1.77485795,41.0311224 C3.2658109,42.5221336 5.68357707,42.5221336 7.17453001,41.0311224 L9.62958312,38.5760693 L6.02987948,31.3763705 Z" id="Path"></path>
                    <path d="M23.225622,14.1407775 C23.1642734,14.211914 23.1159169,14.290333 23.0484508,14.3577992 L18.9075623,18.4986877 L22.507266,25.6983864 L27.5620922,20.6435602 L23.225622,14.1407775 Z" id="Path"></path>
                    <path d="M17.6487788,8.95806889 C18.0682567,8.53853261 18.5650468,8.25049107 19.0909091,8.06737728 L19.0909091,0.283788464 C16.5901795,0.557847436 14.1623341,1.64505275 12.2490484,3.55833851 C10.7580372,5.04929145 10.7580372,7.46705763 12.2490484,8.95806889 C13.7400013,10.4490217 16.1577676,10.4490217 17.6487788,8.95806889 Z" id="Path"></path>
                    <path d="M21,7.9036061 C21.74603,8.03189644 22.4609486,8.37680054 23.037556,8.94915496 L29.4263805,4.69005514 C29.1255216,4.2985424 28.8065435,3.91670084 28.4481811,3.55833851 C26.3805043,1.49066161 23.7122748,0.3927945 21,0.239568573 L21,7.9036061 Z" id="Path"></path>
                    <path d="M30.4668607,6.29077145 L23.9990345,10.602539 C24.134957,11.0760248 24.1777788,11.565474 24.1274996,12.0523598 L28.9186373,19.2368524 C32.1311395,15.6073192 32.6543219,10.4200078 30.4668607,6.29077145 Z" id="Path"></path>
                </g>
            </g>
        </g>
    </g>
</svg>