<?xml version="1.0" encoding="UTF-8"?>
<svg width="46px" height="34px" viewBox="0 0 46 34" version="1.1" xmlns="http://www.w3.org/2000/svg" xmlns:xlink="http://www.w3.org/1999/xlink">
    <!-- Generator: Sketch 56.3 (81716) - https://sketch.com -->
    <title>meat-white</title>
    <desc>Created with Sketch.</desc>
    <g id="icons" stroke="none" stroke-width="1" fill="none" fill-rule="evenodd">
        <g id="meat-white" transform="translate(-9.000000, -15.000000)" fill="#FDFDFD" fill-rule="nonzero">
            <g transform="translate(8.000000, 14.000000)" id="Path">
                <path d="M46.974,31.771 C46.8676797,31.3190566 46.4642809,30.9997337 46,31 L2,31 C1.53176218,30.9947364 1.12257382,31.3151034 1.01533554,31.770926 C0.908097257,32.2267487 1.13152976,32.6959481 1.553,32.9 L5.553,34.9 C5.69225619,34.9674687 5.84526986,35.0016999 6,35 L42,35 C42.1547301,35.0016999 42.3077438,34.9674687 42.447,34.9 L46.447,32.9 C46.8642928,32.6924531 47.0828854,32.2241589 46.974,31.771 Z"></path>
                <path d="M19.636,28.363 C16.121896,24.8483869 16.121896,19.1506131 19.636,15.636 C22.022663,13.5332493 24.6939722,11.7776251 27.571,10.421 C27.628,10.394 27.678,10.376 27.734,10.349 C26.5028819,10.1168923 25.2528072,10 24,10 C13.523,10 5,18.075 5,28 C5,28.5522847 5.44771525,29 6,29 L20.346,29 C20.0980856,28.8005477 19.8610767,28.5879073 19.636,28.363 Z"></path>
                <path d="M38.907,16.867 C38.5956025,18.0990434 38.1499347,19.2931917 37.578,20.428 C36.2217833,23.3055621 34.4661271,25.9772567 32.363,28.364 C32.138026,28.5883317 31.9013632,28.8006273 31.654,29 L42,29 C42.5522847,29 43,28.5522847 43,28 C42.9976861,23.9212907 41.547183,19.975908 38.907,16.867 Z"></path>
                <path d="M43.954,4.046 C43.7209272,2.21606506 42.1043455,0.883311372 40.2635462,1.0034901 C38.422747,1.12366882 36.9931696,2.65529456 37,4.5 C37.0014308,5.42655549 37.3763585,6.31340351 38.04,6.96 L34.061,10.939 C32.761,10.673 30.995,10.986 28.443,12.222 C25.7685757,13.4839328 23.2811085,15.10893 21.051,17.051 C19.2825353,18.8194647 18.5918712,21.3970581 19.2391742,23.8128258 C19.8864772,26.2285935 21.7734065,28.1155228 24.1891742,28.7628258 C26.6049419,29.4101288 29.1825353,28.7194647 30.951,26.951 C32.89307,24.7208915 34.5180672,22.2334243 35.78,19.559 C37.015,17.007 37.329,15.243 37.063,13.941 L41.04,9.96 C41.6865965,10.6236415 42.5734445,10.9985692 43.5,11 C45.3447054,11.0068304 46.8763312,9.57725302 46.9965099,7.73645377 C47.1166886,5.89565452 45.7839349,4.2790728 43.954,4.046 Z"></path>
            </g>
        </g>
    </g>
</svg>