<?xml version="1.0" encoding="UTF-8"?>
<svg width="38px" height="46px" viewBox="0 0 38 46" version="1.1" xmlns="http://www.w3.org/2000/svg" xmlns:xlink="http://www.w3.org/1999/xlink">
    <!-- Generator: Sketch 56.3 (81716) - https://sketch.com -->
    <title>nuts-white</title>
    <desc>Created with Sketch.</desc>
    <g id="icons" stroke="none" stroke-width="1" fill="none" fill-rule="evenodd">
        <g id="nuts-white" transform="translate(-13.000000, -9.000000)" fill="#FDFDFD" fill-rule="nonzero">
            <g transform="translate(13.000000, 9.000000)" id="Path">
                <path d="M22,5 L20.152,5 C20.7428464,3.33730084 22.2434023,2.16742884 24,2 C24.5522847,2 25,1.55228475 25,1 C25,0.44771525 24.5522847,0 24,0 C21.1422098,0.174031543 18.7404077,2.2094571 18.1,5 L16,5 C7.1677843,5.01046962 0.0104696182,12.1677843 0,21 C0,21.5522847 0.44771525,22 1,22 L37,22 C37.5522847,22 38,21.5522847 38,21 C37.9895304,12.1677843 30.8322157,5.01046962 22,5 L22,5 Z"></path>
                <path d="M4,24 L4,31 C4,39.41 16.671,46 19,46 C21.329,46 34,39.41 34,31 L34,24 L4,24 Z"></path>
            </g>
        </g>
    </g>
</svg>