<?xml version="1.0" encoding="UTF-8"?>
<svg width="25px" height="46px" viewBox="0 0 25 46" version="1.1" xmlns="http://www.w3.org/2000/svg" xmlns:xlink="http://www.w3.org/1999/xlink">
    <!-- Generator: Sketch 56.3 (81716) - https://sketch.com -->
    <title>oil-white</title>
    <desc>Created with Sketch.</desc>
    <g id="icons" stroke="none" stroke-width="1" fill="none" fill-rule="evenodd">
        <g id="oil-white" transform="translate(-19.000000, -8.000000)" fill="#FDFDFD" fill-rule="nonzero">
            <g transform="translate(19.000000, 8.000000)">
                <rect id="Rectangle" x="5" y="0" width="10" height="7" rx="1"></rect>
                <path d="M13,41 C13,37.534 17.476,31.094 18.372,29.838 L20,27.559 L20,23 C20,17.824 17.982,14.547 14,13.247 L14,9 L6,9 L6,13.247 C2.018,14.547 0,17.824 0,23 L0,44 C0,45.1045695 0.8954305,46 2,46 L14.914,46 C13.6386657,44.6527971 12.9502557,42.854443 13,41 L13,41 Z" id="Path"></path>
                <path d="M15,41 C15,38 20,31 20,31 C20,31 25,38 25,41 C25.0814377,42.3494045 24.5808611,43.6690428 23.6249519,44.6249519 C22.6690428,45.5808611 21.3494045,46.0814377 20,46 C18.6505955,46.0814377 17.3309572,45.5808611 16.3750481,44.6249519 C15.4191389,43.6690428 14.9185623,42.3494045 15,41 L15,41 Z" id="Path"></path>
            </g>
        </g>
    </g>
</svg>