<?xml version="1.0" encoding="UTF-8"?>
<svg width="46px" height="41px" viewBox="0 0 46 41" version="1.1" xmlns="http://www.w3.org/2000/svg" xmlns:xlink="http://www.w3.org/1999/xlink">
    <!-- Generator: Sketch 56.3 (81716) - https://sketch.com -->
    <title>pasta-white</title>
    <desc>Created with Sketch.</desc>
    <g id="icons" stroke="none" stroke-width="1" fill="none" fill-rule="evenodd">
        <g id="pasta-white" transform="translate(-9.000000, -11.000000)" fill="#FDFDFD" fill-rule="nonzero">
            <g transform="translate(9.000000, 11.000000)" id="Path">
                <path d="M45,29 L1,29 C0.44771525,29 0,29.4477153 0,30 C0,30.5522847 0.44771525,31 1,31 L2.323,31 L4.311,35.971 C5.52589229,39.0083794 8.46766432,41 11.739,41 L34.261,41 C37.5323357,41 40.4741077,39.0083794 41.689,35.971 L43.677,31 L45,31 C45.5522847,31 46,30.5522847 46,30 C46,29.4477153 45.5522847,29 45,29 Z"></path>
                <path d="M26,26 C26,26.5522847 26.4477153,27 27,27 C27.5522847,27 28,26.5522847 28,26 C28,24.3431458 29.3431458,23 31,23 C32.6568542,23 34,24.3431458 34,26 C34,26.5522847 34.4477153,27 35,27 C35.5522847,27 36,26.5522847 36,26 C36,23.2385763 33.7614237,21 31,21 C28.2385763,21 26,23.2385763 26,26 L26,26 Z"></path>
                <path d="M5,27 C5.55228475,27 6,26.5522847 6,26 C6.00551113,21.0317218 10.0317218,17.0055111 15,17 C17.5892447,16.9930431 20.0534189,18.11289 21.751,20.068 C20.6081138,21.8353861 20.0000767,23.8952809 20,26 C20,26.5522847 20.4477153,27 21,27 C21.5522847,27 22,26.5522847 22,26 C22,21.0294373 26.0294373,17 31,17 C35.9705627,17 40,21.0294373 40,26 C40,26.5522847 40.4477153,27 41,27 C41.5522847,27 42,26.5522847 42,26 C41.9956153,21.8791382 39.6883344,18.1063595 36.022,16.225 L42.462,5.6 C42.514,5.515 42.562,5.427 42.607,5.338 C43.5168281,3.52070266 42.7812467,1.3099292 40.964,0.4 C40.873,0.355 40.781,0.313 40.687,0.275 C39.7818443,-0.0897367661 38.7688417,-0.0797988556 37.8710159,0.30262579 C36.9731901,0.685050436 36.2641505,1.40860827 35.9,2.314 L30.814,15.014 C27.8520967,15.0628961 25.0361738,16.3088861 23.008,18.468 C20.9380859,16.2472634 18.0358068,14.9903822 15,15 C8.92783745,15.0071635 4.0071635,19.9278374 4,26 C4,26.5522847 4.44771525,27 5,27 Z"></path>
                <path d="M10,26 C10,26.5522847 10.4477153,27 11,27 C11.5522847,27 12,26.5522847 12,26 C12,24.3431458 13.3431458,23 15,23 C15.5522847,23 16,22.5522847 16,22 C16,21.4477153 15.5522847,21 15,21 C12.2399468,21.0033061 10.0033061,23.2399468 10,26 L10,26 Z"></path>
                <path d="M23,12 L23,10 C23,6.13400675 19.8659932,3 16,3 L16,5 C16,8.86599325 19.1340068,12 23,12 Z"></path>
            </g>
        </g>
    </g>
</svg>