<?xml version="1.0" encoding="UTF-8"?>
<svg width="46px" height="44px" viewBox="0 0 46 44" version="1.1" xmlns="http://www.w3.org/2000/svg" xmlns:xlink="http://www.w3.org/1999/xlink">
    <!-- Generator: Sketch 56.3 (81716) - https://sketch.com -->
    <title>rice-white</title>
    <desc>Created with Sketch.</desc>
    <g id="icons" stroke="none" stroke-width="1" fill="none" fill-rule="evenodd">
        <g id="rice-white" transform="translate(-9.000000, -10.000000)" fill="#FDFDFD" fill-rule="nonzero">
            <g transform="translate(9.000000, 10.000000)">
                <path d="M45,22 L1,22 C0.44771525,22 0,22.4477153 0,23 C0.0214320873,31.9987143 5.27615457,40.1627054 13.458,43.909 C13.588525,43.9688486 13.7304082,44 13.874,44 L32.126,44 C32.2695918,44 32.411475,43.9688486 32.542,43.909 C40.7238454,40.1627054 45.9785679,31.9987143 46,23 C46,22.4477153 45.5522847,22 45,22 Z" id="Path"></path>
                <circle id="Oval" cx="7" cy="8" r="1"></circle>
                <circle id="Oval" cx="22" cy="5" r="1"></circle>
                <path d="M45.555,0.168 C45.3343498,0.0207717574 45.0642442,-0.0327572438 44.8041213,0.0191923159 C44.5439984,0.0711418757 44.3151733,0.224313133 44.168,0.445 L36.368,12.137 C34.4718968,11.7547502 32.502274,12.1802032 30.933,13.311 C30.819,13.129 30.69,12.96 30.561,12.79 L33.936,3.336 C34.0731916,2.99573526 34.0130404,2.60766569 33.7792784,2.32489912 C33.5455163,2.04213255 33.175682,1.91007692 32.8156886,1.98083307 C32.4556953,2.05158922 32.1633524,2.3137948 32.054,2.664 L28.982,11.264 C27.0497156,9.89903503 24.5540316,9.61578601 22.365,10.513 C20.8367265,8.67690231 18.4762035,7.74902648 16.1067138,8.05298907 C13.7372241,8.35695165 11.6873391,9.85060291 10.672,12.013 C8.69552174,12.088359 6.84520158,13.0038338 5.58618094,14.5292886 C4.32716029,16.0547434 3.77918229,18.0450949 4.08,20 L41.92,20 C42.3676058,17.0864885 40.9185408,14.2096387 38.311,12.835 L45.832,1.555 C45.9792282,1.33434979 46.0327572,1.06424421 45.9808077,0.80412132 C45.9288581,0.543998435 45.7756869,0.315173296 45.555,0.168 Z M17,16 C16.4477153,16 16,15.5522847 16,15 C16,14.4477153 16.4477153,14 17,14 C17.5522847,14 18,14.4477153 18,15 C18,15.5522847 17.5522847,16 17,16 Z" id="Shape"></path>
            </g>
        </g>
    </g>
</svg>