<?xml version="1.0" encoding="UTF-8"?>
<svg width="384px" height="116px" viewBox="0 0 384 116" version="1.1" xmlns="http://www.w3.org/2000/svg" xmlns:xlink="http://www.w3.org/1999/xlink">
    <!-- Generator: Sketch 56.3 (81716) - https://sketch.com -->
    <title>camera_bg</title>
    <desc>Created with Sketch.</desc>
    <defs>
        <path d="M239.103135,162.001631 C240.644092,184.349463 259.260794,202 282,202 C304.742826,202 323.361835,184.343843 324.8976,161.990957 C324.965493,161.002777 327,159 328,159 C352,159 388,159 436,159 C450.359403,159 462,170.640597 462,185 L462,251 L102,251 L102,185 C102,170.640597 113.640597,159 128,159 C176,159 212,159 236,159 C237,159 239.034755,161.009959 239.103135,162.001631 Z" id="path-1"></path>
        <filter x="-5.8%" y="-29.3%" width="111.7%" height="145.7%" filterUnits="objectBoundingBox" id="filter-2">
            <feMorphology radius="1" operator="dilate" in="SourceAlpha" result="shadowSpreadOuter1"></feMorphology>
            <feOffset dx="0" dy="-6" in="shadowSpreadOuter1" result="shadowOffsetOuter1"></feOffset>
            <feGaussianBlur stdDeviation="5" in="shadowOffsetOuter1" result="shadowBlurOuter1"></feGaussianBlur>
            <feColorMatrix values="0 0 0 0 0   0 0 0 0 0   0 0 0 0 0  0 0 0 0.0449082168 0" type="matrix" in="shadowBlurOuter1" result="shadowMatrixOuter1"></feColorMatrix>
            <feMorphology radius="0.5" operator="dilate" in="SourceAlpha" result="shadowSpreadOuter2"></feMorphology>
            <feOffset dx="0" dy="0" in="shadowSpreadOuter2" result="shadowOffsetOuter2"></feOffset>
            <feGaussianBlur stdDeviation="1" in="shadowOffsetOuter2" result="shadowBlurOuter2"></feGaussianBlur>
            <feColorMatrix values="0 0 0 0 0   0 0 0 0 0   0 0 0 0 0  0 0 0 0.03 0" type="matrix" in="shadowBlurOuter2" result="shadowMatrixOuter2"></feColorMatrix>
            <feMerge>
                <feMergeNode in="shadowMatrixOuter1"></feMergeNode>
                <feMergeNode in="shadowMatrixOuter2"></feMergeNode>
            </feMerge>
        </filter>
    </defs>
    <g id="s" stroke="none" stroke-width="1" fill="none" fill-rule="evenodd">
        <g id="camera_bg" transform="translate(-90.000000, -141.000000)" fill-rule="nonzero">
            <g>
                <use fill="black" fill-opacity="1" filter="url(#filter-2)" xlink:href="#path-1"></use>
                <use fill="#FFFFFF" xlink:href="#path-1"></use>
            </g>
        </g>
    </g>
</svg>