<?xml version="1.0" encoding="UTF-8"?>
<svg width="36px" height="44px" viewBox="0 0 36 44" version="1.1" xmlns="http://www.w3.org/2000/svg" xmlns:xlink="http://www.w3.org/1999/xlink">
    <!-- Generator: Sketch 56.3 (81716) - https://sketch.com -->
    <title>egg</title>
    <desc>Created with Sketch.</desc>
    <g id="icons" stroke="none" stroke-width="1" fill="none" fill-rule="evenodd">
        <g id="egg" transform="translate(-14.000000, -10.000000)" fill-rule="nonzero">
            <g transform="translate(14.000000, 10.000000)" id="Path">
                <path d="M10.0605469,18.7958984 L18,24.75 L25.9394531,18.7958984 L35.8860473,24.7892456 C34.8864746,10.4221802 27.2408447,0 18,0 C8.6814575,0 1.1029053,10.4222412 0.112854,24.7892456 L10.0605469,18.7958984 Z" fill="#170A59"></path>
                <path d="M26.0605469,21.2041016 L18,27.25 L9.9394531,21.2041016 L0.0127563,27.1853028 C0.0081177,27.456665 0,27.7262573 0,28 C0,38 9.1634521,44 18,44 C26.8365479,44 36,38 36,28 C36,27.7264404 35.9918213,27.4569702 35.9871216,27.185791 L26.0605469,21.2041016 Z" fill="#F8DD74"></path>
            </g>
        </g>
    </g>
</svg>