<?xml version="1.0" encoding="UTF-8"?>
<svg width="38px" height="42px" viewBox="0 0 38 42" version="1.1" xmlns="http://www.w3.org/2000/svg" xmlns:xlink="http://www.w3.org/1999/xlink">
    <!-- Generator: Sketch 56.3 (81716) - https://sketch.com -->
    <title>fruit_icn</title>
    <desc>Created with Sketch.</desc>
    <g id="icons" stroke="none" stroke-width="1" fill="none" fill-rule="evenodd">
        <g id="fruit" transform="translate(-13.000000, -10.000000)" fill-rule="nonzero">
            <g id="fruit_icn" transform="translate(13.000000, 10.000000)">
                <g id="apple-2">
                    <path d="M33.3991282,12.1164231 C29.9082949,9.31010256 26.1289103,9.93817949 22.7900897,10.4907051 C21.8061026,10.6545513 20.8630769,10.8111154 19.9682949,10.8775641 C19.5696026,7.26657692 16.9881154,3.04935897 13.0084744,1.85874359 C12.6969296,1.76541024 12.3592576,1.84537382 12.1226562,2.06851282 C11.8860548,2.29165182 11.7864693,2.62406612 11.8614126,2.94053847 C11.9363559,3.25701081 12.1744424,3.50946153 12.4859872,3.60279487 C15.6618718,4.55674359 17.75,7.91923077 18.1341282,10.8648205 C17.2748462,10.7938205 16.3773333,10.646359 15.4406795,10.4907051 C12.1027692,9.93817949 8.32247436,9.30737179 4.83164103,12.1164231 C0.210269231,15.8384615 -0.979435897,26.3064103 4.7005641,35.3853077 C9.34287179,42.8111795 14.1854359,42.0775128 17.3895385,41.5923462 C17.9608648,41.488645 18.538795,41.4253769 19.1190256,41.4030128 C19.6992563,41.4253769 20.2771865,41.488645 20.8485128,41.5923462 C21.8186601,41.7615498 22.8003842,41.8558878 23.785,41.8745256 C26.6677821,41.8745256 30.1567949,40.7940513 33.5374872,35.3853077 C39.2102051,26.3064103 38.0205,15.8384615 33.3991282,12.1164231 Z" id="Path" fill="#170A59"></path>
                    <path d="M28.2179487,1.82051282 L28.2179487,0 C24.6989036,0 21.8461538,2.85274974 21.8461538,6.37179487 L21.8461538,8.19230769 C25.365199,8.19230769 28.2179487,5.33955796 28.2179487,1.82051282 Z" id="Path" fill="#F8DD74"></path>
                </g>
            </g>
        </g>
    </g>
</svg>