<?xml version="1.0" encoding="UTF-8"?>
<svg width="30px" height="46px" viewBox="0 0 30 46" version="1.1" xmlns="http://www.w3.org/2000/svg" xmlns:xlink="http://www.w3.org/1999/xlink">
    <!-- Generator: Sketch 56.3 (81716) - https://sketch.com -->
    <title>potato</title>
    <desc>Created with Sketch.</desc>
    <g id="icons" stroke="none" stroke-width="1" fill="none" fill-rule="evenodd">
        <g id="potatoes" transform="translate(-17.000000, -9.000000)" fill-rule="nonzero">
            <g id="potato" transform="translate(16.000000, 9.000000)">
                <path d="M30.06,22.906 C29.2814713,19.6634393 28.9251883,16.3338731 29,13 C29,5.82029825 23.1797017,2.13162821e-14 16,2.13162821e-14 C8.82029825,2.13162821e-14 3,5.82029825 3,13 C3.07481175,16.3338731 2.71852866,19.6634393 1.94,22.906 C1.28282151,25.5528814 0.966924573,28.2729557 1,31 C1,39.2842712 7.71572875,46 16,46 C24.2842712,46 31,39.2842712 31,31 C31.0330754,28.2729557 30.7171785,25.5528814 30.06,22.906 Z" id="Shape" fill="#F8DD74"></path>
                <path d="M16,39 C15.4477153,39 15,38.5522847 15,38 C15,37.4477153 15.4477153,37 16,37 C16.5522847,37 17,37.4477153 17,38 C17,38.5522847 16.5522847,39 16,39 Z" id="Path" fill="#170A59"></path>
                <path d="M22.5,37 C21.6715729,37 21,36.3284271 21,35.5 C21,34.6715729 21.6715729,34 22.5,34 C23.3284271,34 24,34.6715729 24,35.5 C24,36.3284271 23.3284271,37 22.5,37 Z" id="Path" fill="#170A59"></path>
                <path d="M25,31 C24.4477153,31 24,30.5522847 24,30 C24,29.4477153 24.4477153,29 25,29 C25.5522847,29 26,29.4477153 26,30 C26,30.5522847 25.5522847,31 25,31 Z" id="Path" fill="#170A59"></path>
            </g>
        </g>
    </g>
</svg>