<?xml version="1.0" encoding="UTF-8"?>
<svg width="98px" height="35px" viewBox="0 0 98 35" version="1.1" xmlns="http://www.w3.org/2000/svg" xmlns:xlink="http://www.w3.org/1999/xlink">
    <!-- Generator: Sketch 56.3 (81716) - https://sketch.com -->
    <title>logo3</title>
    <desc>Created with Sketch.</desc>
    <g id="brand" stroke="none" stroke-width="1" fill="none" fill-rule="evenodd">
        <g id="Artboard" transform="translate(-42.000000, -31.000000)" fill-rule="nonzero">
            <g id="logo" transform="translate(40.000000, 31.000000)">
                <path d="M64.6111111,22.5555556 C64.5925925,22.7037044 64.5833333,22.9444428 64.5833333,23.2777778 C64.5833333,24.8888969 64.9861071,26.1527732 65.7916667,27.0694444 C66.5972263,27.9861157 67.7592517,28.4444444 69.2777778,28.4444444 C70.1296339,28.4444444 70.9629589,28.3055569 71.7777778,28.0277778 C72.5925967,27.7499986 73.3333333,27.3333361 74,26.7777778 L74.5555556,28.0555556 C73.9999972,28.6111139 73.2268568,29.0601835 72.2361111,29.4027778 C71.2453654,29.7453721 70.250005,29.9166667 69.25,29.9166667 C67.2685086,29.9166667 65.7037094,29.3101912 64.5555556,28.0972222 C63.4074017,26.8842532 62.8333333,25.2592694 62.8333333,23.2222222 C62.8333333,21.6851775 63.1111083,20.3333333 63.6666667,19.1666667 C64.2222222,17.9999942 65.0138838,17.0925958 66.0416667,16.4444444 C67.0694496,15.7962931 68.2685117,15.4722222 69.6388889,15.4722222 C71.3796383,15.4722222 72.7546246,15.9722222 73.7638889,16.9722222 C74.7731532,17.9722222 75.2777778,19.4073981 75.2777778,21.2777778 C75.2777778,21.6851872 75.2500003,22.1111089 75.1944444,22.5555556 L64.6111111,22.5555556 Z M69.75,16.8333333 C68.3981414,16.8333333 67.2963006,17.2175887 66.4444444,17.9861111 C65.5925883,18.7546335 65.0277792,19.8425856 64.75,21.25 L73.7222222,21.25 C73.7592594,19.8425856 73.4166703,18.7546335 72.6944444,17.9861111 C71.9722186,17.2175887 70.9907469,16.8333333 69.75,16.8333333 Z M89.7777778,15.8055556 L88.6666667,29.7222222 L87.0277778,29.7222222 L87.2222222,27.3055556 C86.7777756,28.1203744 86.1250043,28.7592569 85.2638889,29.2222222 C84.4027735,29.6851875 83.4722272,29.9166667 82.4722222,29.9166667 C81.2870311,29.9166667 80.2500044,29.6388917 79.3611111,29.0833333 C78.4722178,28.527775 77.7824099,27.7407458 77.2916667,26.7222222 C76.8009235,25.7036986 76.5555556,24.5185253 76.5555556,23.1666667 C76.5555556,21.6296219 76.8240714,20.2824132 77.3611111,19.125 C77.8981508,17.9675868 78.6620321,17.0694476 79.6527778,16.4305556 C80.6435235,15.7916635 81.7777714,15.4722222 83.0555556,15.4722222 C84.2037094,15.4722222 85.1990699,15.7222197 86.0416667,16.2222222 C86.8842635,16.7222247 87.5092572,17.4259214 87.9166667,18.3333333 L88.1111111,15.8055556 L89.7777778,15.8055556 Z M82.8055556,28.4444444 C84.2870444,28.4444444 85.458329,27.8796353 86.3194444,26.75 C87.1805599,25.6203647 87.6111111,24.0740839 87.6111111,22.1111111 C87.6111111,20.4259175 87.2222261,19.1388933 86.4444444,18.25 C85.6666628,17.3611067 84.5555628,16.9166667 83.1111111,16.9166667 C81.592585,16.9166667 80.4120412,17.4768463 79.5694444,18.5972222 C78.7268476,19.7175982 78.3055556,21.2685086 78.3055556,23.25 C78.3055556,24.8981564 78.6944406,26.1759214 79.4722222,27.0833333 C80.2500039,27.9907453 81.3611039,28.4444444 82.8055556,28.4444444 Z M94.5833333,25.4444444 C94.5648147,25.5740747 94.5555556,25.7592581 94.5555556,26 C94.5555556,26.9074119 94.7546276,27.5370353 95.1527778,27.8888889 C95.5509279,28.2407425 96.1203667,28.4166667 96.8611111,28.4166667 C97.4166694,28.4166667 97.9166644,28.3333342 98.3611111,28.1666667 L98.25,29.6666667 C97.6944417,29.8148156 97.101855,29.8888889 96.4722222,29.8888889 C95.3425869,29.8888889 94.4583365,29.5925956 93.8194444,29 C93.1805524,28.4074044 92.8611111,27.5185244 92.8611111,26.3333333 C92.8611111,26.11111 92.8703703,25.9351858 92.8888889,25.8055556 L93.5555556,17.1666667 L90.8055556,17.1666667 L90.9166667,15.8055556 L93.6666667,15.8055556 L93.9444444,12.1111111 L95.6666667,11.4722222 L95.3333333,15.8055556 L99.4444444,15.8055556 L99.3333333,17.1666667 L95.2222222,17.1666667 L94.5833333,25.4444444 Z" id="Snapeat" fill="#FDFDFD"></path>
                <g id="Group" transform="translate(32.043680, 22.699293) rotate(-11.000000) translate(-32.043680, -22.699293) translate(2.043680, 9.699293)" fill="#FDFDFD">
                    <path d="M7.44444444,20.2222222 C5.88888111,20.2222222 4.51388889,20.013891 3.31944444,19.5972222 C2.12499403,19.1805535 1.01852361,18.5277822 -1.42108547e-14,17.6388889 L0.833333333,16.2777778 C1.85185694,17.1296339 2.87962444,17.7499981 3.91666667,18.1388889 C4.95370889,18.5277797 6.12962306,18.7222222 7.44444444,18.7222222 C9.16667528,18.7222222 10.4907361,18.3842626 11.4166667,17.7083333 C12.3425972,17.032404 12.8055556,16.0925986 12.8055556,14.8888889 C12.8055556,14.1666631 12.5833356,13.5740764 12.1388889,13.1111111 C11.6944422,12.6481458 11.1435218,12.2870383 10.4861111,12.0277778 C9.82870042,11.7685172 8.92593167,11.4722239 7.77777778,11.1388889 C6.38888194,10.7499981 5.26389319,10.3750018 4.40277778,10.0138889 C3.54166236,9.65277597 2.81018819,9.10648514 2.20833333,8.375 C1.60647847,7.64351486 1.30555556,6.68519111 1.30555556,5.5 C1.30555556,4.38888333 1.59721931,3.42130042 2.18055556,2.59722222 C2.76389181,1.77314403 3.59258722,1.13426153 4.66666667,0.680555556 C5.74074611,0.226849583 6.99073361,-5.68434189e-14 8.41666667,-5.68434189e-14 C9.78704389,-5.68434189e-14 11.0601793,0.22222 12.2361111,0.666666667 C13.4120429,1.11111333 14.4351808,1.74999583 15.3055556,2.58333333 L14.4722222,3.94444444 C12.6388797,2.31480667 10.6203814,1.5 8.41666667,1.5 C6.69443583,1.5 5.370375,1.84721875 4.44444444,2.54166667 C3.51851389,3.23611458 3.05555556,4.2036975 3.05555556,5.44444444 C3.05555556,6.25926333 3.29629389,6.92592333 3.77777778,7.44444444 C4.25926167,7.96296556 4.85184833,8.36573931 5.55555556,8.65277778 C6.25926278,8.93981625 7.21295694,9.24999833 8.41666667,9.58333333 C9.76852528,9.97222417 10.8518478,10.3379612 11.6666667,10.6805556 C12.4814856,11.0231499 13.1712935,11.5277744 13.7361111,12.1944444 C14.3009287,12.8611144 14.5833333,13.7314761 14.5833333,14.8055556 C14.5833333,16.4722306 13.9398212,17.7916618 12.6527778,18.7638889 C11.3657343,19.736116 9.62964056,20.2222222 7.44444444,20.2222222 Z" id="Path"></path>
                    <path d="M23.75,5.75 C25.3055633,5.75 26.4953662,6.14351458 27.3194444,6.93055556 C28.1435226,7.71759653 28.5555556,8.88888111 28.5555556,10.4444444 C28.5555556,10.7777794 28.5462964,11.0277769 28.5277778,11.1944444 L27.8333333,20 L26.1666667,20 L26.8611111,11.3055556 C26.8796297,11.1574067 26.8888889,10.9351867 26.8888889,10.6388889 C26.8888889,9.47221639 26.6111139,8.61111389 26.0555556,8.05555556 C25.4999972,7.49999722 24.6574131,7.22222222 23.5277778,7.22222222 C22.1018447,7.22222222 20.9675968,7.63888472 20.125,8.47222222 C19.2824032,9.30555972 18.8055561,10.4629556 18.6944444,11.9444444 L18.0555556,20 L16.3611111,20 L17.1666667,9.94444444 C17.2407411,9.18518139 17.2777778,8.32407889 17.2777778,7.36111111 C17.2777778,6.78703417 17.2685186,6.3611125 17.25,6.08333333 L18.8333333,6.08333333 L18.8611111,8.5 C19.3240764,7.61110667 19.9814772,6.93055792 20.8333333,6.45833333 C21.6851894,5.98610875 22.6574019,5.75 23.75,5.75 Z" id="Path"></path>
                    <path d="M43.9444444,6.08333333 L42.8333333,20 L41.1944444,20 L41.3888889,17.5833333 C40.9444422,18.3981522 40.291671,19.0370347 39.4305556,19.5 C38.5694401,19.9629653 37.6388939,20.1944444 36.6388889,20.1944444 C35.4536978,20.1944444 34.4166711,19.9166694 33.5277778,19.3611111 C32.6388844,18.8055528 31.9490765,18.0185236 31.4583333,17 C30.9675901,15.9814764 30.7222222,14.7963031 30.7222222,13.4444444 C30.7222222,11.9073997 30.9907381,10.560191 31.5277778,9.40277778 C32.0648175,8.24536458 32.8286987,7.34722542 33.8194444,6.70833333 C34.8101901,6.06944125 35.9444381,5.75 37.2222222,5.75 C38.3703761,5.75 39.3657365,5.9999975 40.2083333,6.5 C41.0509301,7.0000025 41.6759239,7.70369917 42.0833333,8.61111111 L42.2777778,6.08333333 L43.9444444,6.08333333 Z M36.9722222,18.7222222 C38.4537111,18.7222222 39.6249957,18.1574131 40.4861111,17.0277778 C41.3472265,15.8981425 41.7777778,14.3518617 41.7777778,12.3888889 C41.7777778,10.7036953 41.3888928,9.41667111 40.6111111,8.52777778 C39.8333294,7.63888444 38.7222294,7.19444444 37.2777778,7.19444444 C35.7592517,7.19444444 34.5787079,7.75462403 33.7361111,8.875 C32.8935143,9.99537597 32.4722222,11.5462864 32.4722222,13.5277778 C32.4722222,15.1759342 32.8611072,16.4536992 33.6388889,17.3611111 C34.4166706,18.2685231 35.5277706,18.7222222 36.9722222,18.7222222 Z" id="Shape"></path>
                    <path d="M53.3611111,5.75 C54.5277836,5.75 55.5601807,6.02314542 56.4583333,6.56944444 C57.356486,7.11574347 58.0555531,7.89814306 58.5555556,8.91666667 C59.0555581,9.93519028 59.3055556,11.1203636 59.3055556,12.4722222 C59.3055556,14.0092669 59.0324101,15.3611053 58.4861111,16.5277778 C57.9398121,17.6944503 57.1759308,18.5972222 56.1944444,19.2361111 C55.2129581,19.8750032 54.0833333,20.1944444 52.8055556,20.1944444 C51.6574017,20.1944444 50.6574117,19.9398174 49.8055556,19.4305556 C48.9536994,18.9212937 48.3333353,18.2037083 47.9444444,17.2777778 L47.25,26 L45.5833333,26 L46.8611111,9.94444444 C46.9351856,9.18518139 46.9722222,8.32407889 46.9722222,7.36111111 C46.9722222,6.78703417 46.9629631,6.3611125 46.9444444,6.08333333 L48.5277778,6.08333333 L48.5555556,8.47222222 C49.0000022,7.62036611 49.6574031,6.95370611 50.5277778,6.47222222 C51.3981525,5.99073833 52.3425875,5.75 53.3611111,5.75 Z M52.8055556,18.7222222 C54.2870444,18.7222222 55.4490699,18.1620426 56.2916667,17.0416667 C57.1342635,15.9212907 57.5555556,14.3796394 57.5555556,12.4166667 C57.5555556,10.7685103 57.162041,9.48611569 56.375,8.56944444 C55.587959,7.65277319 54.4907478,7.19444444 53.0833333,7.19444444 C51.5833258,7.19444444 50.4027821,7.75925361 49.5416667,8.88888889 C48.6805513,10.0185242 48.25,11.5740642 48.25,13.5555556 C48.25,15.2407492 48.638885,16.5231437 49.4166667,17.4027778 C50.1944483,18.2824118 51.3240667,18.7222222 52.8055556,18.7222222 Z" id="Shape"></path>
                </g>
                <path d="M56.314475,8.49022347 C59.1284353,9.43558003 61.3371899,11.6443347 62.2825465,14.4582949 C62.3916601,14.7899073 62.7013229,15.0140112 63.0504254,15.0140112 C63.3995279,15.0140112 63.7091907,14.7899073 63.8183043,14.4582949 C64.7636608,11.6443347 66.9724155,9.43558003 69.7863757,8.49022347 C70.1179881,8.38110988 70.342092,8.07144706 70.342092,7.72234457 C70.342092,7.37324207 70.1179881,7.06357925 69.7863757,6.95446567 C66.9724155,6.00910911 64.7636608,3.80035447 63.8183043,0.986394225 C63.7091907,0.654781834 63.3995279,0.4306779 63.0504254,0.4306779 C62.7013229,0.4306779 62.3916601,0.654781834 62.2825465,0.986394225 C61.3371899,3.80035447 59.1284353,6.00910911 56.314475,6.95446567 C55.9828626,7.06357925 55.7587587,7.37324207 55.7587587,7.72234457 C55.7587587,8.07144706 55.9828626,8.38110988 56.314475,8.49022347 Z M63.0504254,3.20845568 C64.0897784,5.11577467 65.6569953,6.68299154 67.5643143,7.72234457 C65.6569953,8.76169759 64.0897784,10.3289145 63.0504254,12.2362335 C62.0110724,10.3289145 60.4438555,8.76169759 58.5365365,7.72234457 C60.4438555,6.68299154 62.0110724,5.11577467 63.0504254,3.20845568 Z" id="Shape" fill="#FFFFFF"></path>
            </g>
        </g>
    </g>
</svg>