<?xml version="1.0" encoding="UTF-8"?>
<svg width="141px" height="50px" viewBox="0 0 141 50" version="1.1" xmlns="http://www.w3.org/2000/svg" xmlns:xlink="http://www.w3.org/1999/xlink">
    <!-- Generator: Sketch 56.3 (81716) - https://sketch.com -->
    <title>splash_logo</title>
    <desc>Created with Sketch.</desc>
    <g id="brand" stroke="none" stroke-width="1" fill="none" fill-rule="evenodd">
        <g id="splash_logo" transform="translate(-21.000000, -22.000000)" fill="#170A59" fill-rule="nonzero">
            <g transform="translate(18.000000, 22.000000)">
                <path d="M93.04,32.48 C93.0133332,32.6933344 93,33.0399976 93,33.52 C93,35.8400116 93.5799942,37.6599934 94.74,38.98 C95.9000058,40.3000066 97.5733224,40.96 99.76,40.96 C100.986673,40.96 102.186661,40.760002 103.36,40.36 C104.533339,39.959998 105.599995,39.360004 106.56,38.56 L107.36,40.4 C106.559996,41.200004 105.446674,41.8466642 104.02,42.34 C102.593326,42.8333358 101.160007,43.08 99.72,43.08 C96.8666524,43.08 94.6133416,42.2066754 92.96,40.46 C91.3066584,38.7133246 90.48,36.373348 90.48,33.44 C90.48,31.2266556 90.879996,29.28 91.68,27.6 C92.48,25.9199916 93.6199926,24.613338 95.1,23.68 C96.5800074,22.746662 98.3066568,22.28 100.28,22.28 C102.786679,22.28 104.766659,22.9999928 106.22,24.44 C107.673341,25.8800072 108.4,27.9466532 108.4,30.64 C108.4,31.2266696 108.36,31.8399968 108.28,32.48 L93.04,32.48 Z M100.44,24.24 C98.4933236,24.24 96.9066728,24.7933278 95.68,25.9 C94.4533272,27.0066722 93.640002,28.5733232 93.24,30.6 L106.16,30.6 C106.213334,28.5733232 105.720005,27.0066722 104.68,25.9 C103.639995,24.7933278 102.226676,24.24 100.44,24.24 Z M129.28,22.76 L127.68,42.8 L125.32,42.8 L125.6,39.32 C124.959997,40.4933392 124.020006,41.41333 122.78,42.08 C121.539994,42.74667 120.200007,43.08 118.76,43.08 C117.053325,43.08 115.560006,42.680004 114.28,41.88 C112.999994,41.079996 112.00667,39.946674 111.3,38.48 C110.59333,37.013326 110.24,35.3066764 110.24,33.36 C110.24,31.1466556 110.626663,29.206675 111.4,27.54 C112.173337,25.873325 113.273326,24.5800046 114.7,23.66 C116.126674,22.7399954 117.759991,22.28 119.6,22.28 C121.253342,22.28 122.686661,22.6399964 123.9,23.36 C125.113339,24.0800036 126.01333,25.0933268 126.6,26.4 L126.88,22.76 L129.28,22.76 Z M119.24,40.96 C121.373344,40.96 123.059994,40.1466748 124.3,38.52 C125.540006,36.8933252 126.16,34.6666808 126.16,31.84 C126.16,29.4133212 125.600006,27.5600064 124.48,26.28 C123.359994,24.9999936 121.76001,24.36 119.68,24.36 C117.493322,24.36 115.793339,25.1666586 114.58,26.78 C113.366661,28.3933414 112.76,30.6266524 112.76,33.48 C112.76,35.8533452 113.319994,37.6933268 114.44,39 C115.560006,40.3066732 117.15999,40.96 119.24,40.96 Z M136.2,36.64 C136.173333,36.8266676 136.16,37.0933316 136.16,37.44 C136.16,38.7466732 136.446664,39.6533308 137.02,40.16 C137.593336,40.6666692 138.413328,40.92 139.48,40.92 C140.280004,40.92 140.999997,40.8000012 141.64,40.56 L141.48,42.72 C140.679996,42.9333344 139.826671,43.04 138.92,43.04 C137.293325,43.04 136.020005,42.6133376 135.1,41.76 C134.179995,40.9066624 133.72,39.6266752 133.72,37.92 C133.72,37.5999984 133.733333,37.3466676 133.76,37.16 L134.72,24.72 L130.76,24.72 L130.92,22.76 L134.88,22.76 L135.28,17.44 L137.76,16.52 L137.28,22.76 L143.2,22.76 L143.04,24.72 L137.12,24.72 L136.2,36.64 Z" id="Snapeat"></path>
                <g id="Group" transform="translate(46.000000, 33.000000) rotate(-11.000000) translate(-46.000000, -33.000000) translate(3.000000, 14.000000)">
                    <path d="M10.72,29.12 C8.4799888,29.12 6.5,28.820003 4.78,28.22 C3.0599914,27.619997 1.466674,26.6800064 -1.42108547e-14,25.4 L1.2,23.44 C2.666674,24.6666728 4.1466592,25.5599972 5.64,26.12 C7.1333408,26.6800028 8.8266572,26.96 10.72,26.96 C13.2000124,26.96 15.10666,26.4733382 16.44,25.5 C17.77334,24.5266618 18.44,23.173342 18.44,21.44 C18.44,20.3999948 18.1200032,19.54667 17.48,18.88 C16.8399968,18.21333 16.0466714,17.6933352 15.1,17.32 C14.1533286,16.9466648 12.8533416,16.5200024 11.2,16.04 C9.19999,15.4799972 7.5800062,14.9400026 6.34,14.42 C5.0999938,13.8999974 4.046671,13.1133386 3.18,12.06 C2.313329,11.0066614 1.88,9.6266752 1.88,7.92 C1.88,6.319992 2.2999958,4.9266726 3.14,3.74 C3.9800042,2.5533274 5.1733256,1.6333366 6.72,0.98 C8.2666744,0.3266634 10.0666564,-5.68434189e-14 12.12,-5.68434189e-14 C14.0933432,-5.68434189e-14 15.9266582,0.3199968 17.62,0.96 C19.3133418,1.6000032 20.7866604,2.519994 22.04,3.72 L20.84,5.68 C18.1999868,3.3333216 15.2933492,2.16 12.12,2.16 C9.6399876,2.16 7.73334,2.659995 6.4,3.66 C5.06666,4.660005 4.4,6.0533244 4.4,7.84 C4.4,9.0133392 4.7466632,9.9733296 5.44,10.72 C6.1333368,11.4666704 6.9866616,12.0466646 8,12.46 C9.0133384,12.8733354 10.386658,13.3199976 12.12,13.8 C14.0666764,14.3600028 15.6266608,14.8866642 16.8,15.38 C17.9733392,15.8733358 18.9666626,16.5999952 19.78,17.56 C20.5933374,18.5200048 21,19.7733256 21,21.32 C21,23.720012 20.0733426,25.619993 18.22,27.02 C16.3666574,28.420007 13.8666824,29.12 10.72,29.12 Z" id="Path"></path>
                    <path d="M34.2,8.28 C36.4400112,8.28 38.1533274,8.846661 39.34,9.98 C40.5266726,11.113339 41.12,12.7999888 41.12,15.04 C41.12,15.5200024 41.1066668,15.8799988 41.08,16.12 L40.08,28.8 L37.68,28.8 L38.68,16.28 C38.7066668,16.0666656 38.72,15.7466688 38.72,15.32 C38.72,13.6399916 38.320004,12.400004 37.52,11.6 C36.719996,10.799996 35.5066748,10.4 33.88,10.4 C31.8266564,10.4 30.1933394,10.999994 28.98,12.2 C27.7666606,13.400006 27.0800008,15.066656 26.92,17.2 L26,28.8 L23.56,28.8 L24.72,14.32 C24.8266672,13.2266612 24.88,11.9866736 24.88,10.6 C24.88,9.7733292 24.8666668,9.160002 24.84,8.76 L27.12,8.76 L27.16,12.24 C27.82667,10.9599936 28.7733272,9.9800034 30,9.3 C31.2266728,8.6199966 32.6266588,8.28 34.2,8.28 Z" id="Path"></path>
                    <path d="M63.28,8.76 L61.68,28.8 L59.32,28.8 L59.6,25.32 C58.9599968,26.4933392 58.0200062,27.41333 56.78,28.08 C55.5399938,28.74667 54.2000072,29.08 52.76,29.08 C51.0533248,29.08 49.5600064,28.680004 48.28,27.88 C46.9999936,27.079996 46.0066702,25.946674 45.3,24.48 C44.5933298,23.013326 44.24,21.3066764 44.24,19.36 C44.24,17.1466556 44.6266628,15.206675 45.4,13.54 C46.1733372,11.873325 47.2733262,10.5800046 48.7,9.66 C50.1266738,8.7399954 51.7599908,8.28 53.6,8.28 C55.2533416,8.28 56.6866606,8.6399964 57.9,9.36 C59.1133394,10.0800036 60.0133304,11.0933268 60.6,12.4 L60.88,8.76 L63.28,8.76 Z M53.24,26.96 C55.373344,26.96 57.0599938,26.1466748 58.3,24.52 C59.5400062,22.8933252 60.16,20.6666808 60.16,17.84 C60.16,15.4133212 59.6000056,13.5600064 58.48,12.28 C57.3599944,10.9999936 55.7600104,10.36 53.68,10.36 C51.4933224,10.36 49.7933394,11.1666586 48.58,12.78 C47.3666606,14.3933414 46.76,16.6266524 46.76,19.48 C46.76,21.8533452 47.3199944,23.6933268 48.44,25 C49.5600056,26.3066732 51.1599896,26.96 53.24,26.96 Z" id="Shape"></path>
                    <path d="M76.84,8.28 C78.5200084,8.28 80.0066602,8.6733294 81.3,9.46 C82.5933398,10.2466706 83.5999964,11.373326 84.32,12.84 C85.0400036,14.306674 85.4,16.0133236 85.4,17.96 C85.4,20.1733444 85.0066706,22.1199916 84.22,23.8 C83.4333294,25.4800084 82.3333404,26.78 80.92,27.7 C79.5066596,28.6200046 77.8800092,29.08 76.04,29.08 C74.3866584,29.08 72.9466728,28.713337 71.72,27.98 C70.4933272,27.246663 69.6000028,26.21334 69.04,24.88 L68.04,37.44 L65.64,37.44 L67.48,14.32 C67.5866672,13.2266612 67.64,11.9866736 67.64,10.6 C67.64,9.7733292 67.6266668,9.160002 67.6,8.76 L69.88,8.76 L69.92,12.2 C70.5600032,10.9733272 71.5066604,10.0133368 72.76,9.32 C74.0133396,8.6266632 75.373326,8.28 76.84,8.28 Z M76.04,26.96 C78.173344,26.96 79.8466606,26.1533414 81.06,24.54 C82.2733394,22.9266586 82.88,20.7066808 82.88,17.88 C82.88,15.5066548 82.313339,13.6600066 81.18,12.34 C80.046661,11.0199934 78.4666768,10.36 76.44,10.36 C74.2799892,10.36 72.5800062,11.1733252 71.34,12.8 C70.0999938,14.4266748 69.48,16.6666524 69.48,19.52 C69.48,21.9466788 70.0399944,23.793327 71.16,25.06 C72.2800056,26.326673 73.906656,26.96 76.04,26.96 Z" id="Shape"></path>
                </g>
                <path d="M81.092844,12.2259218 C85.1449468,13.5872352 88.3255535,16.7678419 89.6868669,20.8199447 C89.8439905,21.2974665 90.2899049,21.6201762 90.7926125,21.6201762 C91.2953201,21.6201762 91.7412346,21.2974665 91.8983582,20.8199447 C93.2596716,16.7678419 96.4402783,13.5872352 100.492381,12.2259218 C100.969903,12.0687982 101.292613,11.6228838 101.292613,11.1201762 C101.292613,10.6174686 100.969903,10.1715541 100.492381,10.0144306 C96.4402783,8.65311711 93.2596716,5.47251043 91.8983582,1.42040768 C91.7412346,0.942885842 91.2953201,0.620176176 90.7926125,0.620176176 C90.2899049,0.620176176 89.8439905,0.942885842 89.6868669,1.42040768 C88.3255535,5.47251043 85.1449468,8.65311711 81.092844,10.0144306 C80.6153222,10.1715541 80.2926125,10.6174686 80.2926125,11.1201762 C80.2926125,11.6228838 80.6153222,12.0687982 81.092844,12.2259218 Z M90.7926125,4.62017618 C92.2892809,7.36671553 94.5460732,9.62350782 97.2926125,11.1201762 C94.5460732,12.6168445 92.2892809,14.8736368 90.7926125,17.6201762 C89.2959442,14.8736368 87.0391519,12.6168445 84.2926125,11.1201762 C87.0391519,9.62350782 89.2959442,7.36671553 90.7926125,4.62017618 Z" id="Shape"></path>
            </g>
        </g>
    </g>
</svg>