<?xml version="1.0" encoding="UTF-8"?>
<svg width="338px" height="229px" viewBox="0 0 338 229" version="1.1" xmlns="http://www.w3.org/2000/svg" xmlns:xlink="http://www.w3.org/1999/xlink">
    <!-- Generator: Sketch 56.3 (81716) - https://sketch.com -->
    <title>hurray</title>
    <desc>Created with Sketch.</desc>
    <g id="illustrations" stroke="none" stroke-width="1" fill="none" fill-rule="evenodd">
        <g id="illustration_4" transform="translate(-6.000000, -95.000000)">
            <g id="hurray" transform="translate(8.000000, 95.000000)">
                <ellipse id="Oval" fill="#F8DD74" transform="translate(266.126981, 40.051163) rotate(-206.000000) translate(-266.126981, -40.051163) " cx="266.126981" cy="40.0511625" rx="2.50777566" ry="2.5087781"></ellipse>
                <ellipse id="Oval" fill="#F8DD74" opacity="0.95" transform="translate(92.758957, 178.814546) scale(-1, 1) rotate(-103.000000) translate(-92.758957, -178.814546) " cx="92.7589575" cy="178.814546" rx="2.82263458" ry="2.82098821"></ellipse>
                <ellipse id="Oval" fill="#F8DD74" opacity="0.9" transform="translate(102.190763, 161.982580) scale(1, -1) rotate(-39.000000) translate(-102.190763, -161.982580) " cx="102.190763" cy="161.98258" rx="1.88108075" ry="1.88133464"></ellipse>
                <ellipse id="Oval" fill="#F8DD74" opacity="0.83" transform="translate(216.790869, 92.496102) scale(-1, -1) rotate(-145.000000) translate(-216.790869, -92.496102) " cx="216.790869" cy="92.4961021" rx="2.82149828" ry="2.82212478"></ellipse>
                <ellipse id="Oval" fill="#F8DD74" opacity="0.97" transform="translate(77.380253, 203.516493) rotate(-36.000000) translate(-77.380253, -203.516493) " cx="77.380253" cy="203.516493" rx="2.19452218" ry="2.19496243"></ellipse>
                <ellipse id="Oval" fill="#F8DD74" opacity="0.84" transform="translate(268.122302, 97.561416) scale(1, -1) rotate(-96.000000) translate(-268.122302, -97.561416) " cx="268.122302" cy="97.5614159" rx="2.19543898" ry="2.19404542"></ellipse>
                <ellipse id="Oval" fill="#F8DD74" opacity="0.82" transform="translate(251.583967, 132.743850) scale(1, -1) rotate(-52.000000) translate(-251.583967, -132.743850) " cx="251.583967" cy="132.74385" rx="2.19491464" ry="2.19456998"></ellipse>
                <ellipse id="Oval" fill="#F8DD74" opacity="0.92" transform="translate(65.132549, 119.944397) scale(1, -1) rotate(-85.000000) translate(-65.132549, -119.944397) " cx="65.1325492" cy="119.944397" rx="1.88180891" ry="1.88060629"></ellipse>
                <ellipse id="Oval" fill="#170A59" opacity="0.77" transform="translate(231.852124, 73.995352) scale(-1, 1) rotate(-290.000000) translate(-231.852124, -73.995352) " cx="231.852124" cy="73.9953518" rx="2.19528794" ry="2.19419656"></ellipse>
                <ellipse id="Oval" fill="#170A59" opacity="0.76" transform="translate(50.633127, 154.758965) rotate(-235.000000) translate(-50.633127, -154.758965) " cx="50.6331265" cy="154.758965" rx="2.19498594" ry="2.19449867"></ellipse>
                <ellipse id="Oval" fill="#170A59" opacity="0.75" transform="translate(190.505684, 119.317124) scale(-1, 1) rotate(-106.000000) translate(-190.505684, -119.317124) " cx="190.505684" cy="119.317124" rx="1.88172543" ry="1.88068982"></ellipse>
                <ellipse id="Oval" fill="#170A59" opacity="0.7" transform="translate(275.878983, 178.171466) scale(1, -1) rotate(-343.000000) translate(-275.878983, -178.171466) " cx="275.878983" cy="178.171466" rx="1.88070143" ry="1.88171383"></ellipse>
                <ellipse id="Oval" fill="#170A59" opacity="0.76" transform="translate(184.024021, 172.037917) scale(-1, -1) rotate(-336.000000) translate(-184.024021, -172.037917) " cx="184.024021" cy="172.037917" rx="1.88079909" ry="1.88161621"></ellipse>
                <ellipse id="Oval" fill="#170A59" opacity="0.91" transform="translate(165.033004, 106.554994) scale(-1, 1) rotate(-332.000000) translate(-165.033004, -106.554994) " cx="165.033004" cy="106.554994" rx="2.82129935" ry="2.82232365"></ellipse>
                <ellipse id="Oval" fill="#170A59" opacity="0.79" transform="translate(205.792352, 194.995419) scale(-1, -1) rotate(-19.000000) translate(-205.792352, -194.995419) " cx="205.792352" cy="194.995419" rx="2.50763532" ry="2.50891838"></ellipse>
                <ellipse id="Oval" fill="#170A59" opacity="0.77" transform="translate(103.141906, 134.769344) scale(-1, 1) rotate(-306.000000) translate(-103.141906, -134.769344) " cx="103.141906" cy="134.769344" rx="2.50852849" ry="2.50802535"></ellipse>
                <ellipse id="Oval" fill="#170A59" opacity="0.7" transform="translate(100.668416, 226.068452) scale(-1, -1) rotate(-332.000000) translate(-100.668416, -226.068452) " cx="100.668416" cy="226.068452" rx="2.50782165" ry="2.50873214"></ellipse>
                <ellipse id="Oval" fill="#170A59" opacity="0.88" transform="translate(75.083058, 142.240667) rotate(-183.000000) translate(-75.083058, -142.240667) " cx="75.083058" cy="142.240667" rx="2.82090054" ry="2.82272226"></ellipse>
                <ellipse id="Oval" fill="#170A59" opacity="0.83" transform="translate(313.141906, 82.705708) scale(1, -1) rotate(-250.000000) translate(-313.141906, -82.705708) " cx="313.141906" cy="82.705708" rx="2.5089005" ry="2.50765321"></ellipse>
                <ellipse id="Oval" fill="#170A59" opacity="0.74" transform="translate(329.272446, 164.083085) rotate(-12.000000) translate(-329.272446, -164.083085) " cx="329.272446" cy="164.083085" rx="1.25376654" ry="1.25451026"></ellipse>
                <ellipse id="Oval" fill="#170A59" opacity="0.8" transform="translate(233.247274, 39.454650) scale(-1, -1) rotate(-268.000000) translate(-233.247274, -39.454650) " cx="233.247274" cy="39.4546501" rx="1.56818058" ry="1.56716542"></ellipse>
                <ellipse id="Oval" fill="#170A59" opacity="0.93" transform="translate(67.399625, 175.442175) scale(1, -1) rotate(-229.000000) translate(-67.399625, -175.442175) " cx="67.399625" cy="175.442175" rx="1.5677439" ry="1.56760227"></ellipse>
                <ellipse id="Oval" fill="#170A59" opacity="0.89" transform="translate(290.536497, 152.357073) scale(-1, -1) rotate(-227.000000) translate(-290.536497, -152.357073) " cx="290.536497" cy="152.357073" rx="1.56770858" ry="1.56763759"></ellipse>
                <ellipse id="Oval" fill="#170A59" opacity="0.84" transform="translate(275.690578, 136.395322) scale(-1, -1) rotate(-194.000000) translate(-275.690578, -136.395322) " cx="275.690578" cy="136.395322" rx="1.56722374" ry="1.56812226"></ellipse>
                <ellipse id="Oval" fill="#170A59" opacity="0.71" transform="translate(194.763450, 155.539254) scale(-1, -1) rotate(-307.000000) translate(-194.763450, -155.539254) " cx="194.76345" cy="155.539254" rx="2.19493866" ry="2.19454596"></ellipse>
                <ellipse id="Oval" fill="#170A59" opacity="0.93" transform="translate(295.306975, 67.681923) rotate(-11.000000) translate(-295.306975, -67.681923) " cx="295.306975" cy="67.6819228" rx="1.56720123" ry="1.56814477"></ellipse>
                <circle id="Oval" fill="#170A59" opacity="0.94" transform="translate(125.000000, 25.647114) scale(-1, -1) rotate(-180.000000) translate(-125.000000, -25.647114) " cx="125" cy="25.6471143" r="3"></circle>
                <ellipse id="Oval" fill="#170A59" opacity="0.96" transform="translate(226.955960, 107.470965) scale(-1, 1) rotate(-252.000000) translate(-226.955960, -107.470965) " cx="226.95596" cy="107.470965" rx="2.50893547" ry="2.50761821"></ellipse>
                <circle id="Oval" fill="#170A59" opacity="0.82" transform="translate(241.500000, 164.147114) scale(1, -1) translate(-241.500000, -164.147114) " cx="241.5" cy="164.147114" r="3.5"></circle>
                <ellipse id="Oval" fill="#170A59" opacity="0.87" transform="translate(205.126542, 136.600773) scale(-1, -1) rotate(-238.000000) translate(-205.126542, -136.600773) " cx="205.126542" cy="136.600773" rx="1.88147534" ry="1.88094002"></ellipse>
                <ellipse id="Oval" fill="#170A59" opacity="0.92" transform="translate(199.908669, 33.380760) scale(1, -1) rotate(-39.000000) translate(-199.908669, -33.380760) " cx="199.908669" cy="33.3807603" rx="1.88108075" ry="1.88133464"></ellipse>
                <ellipse id="Oval" fill="#F8DD74" opacity="0.85" transform="translate(191.418044, 62.373077) rotate(-201.000000) translate(-191.418044, -62.373077) " cx="191.418044" cy="62.3730773" rx="1.88075389" ry="1.8816614"></ellipse>
                <ellipse id="Oval" fill="#F8DD74" opacity="0.73" transform="translate(206.883629, 63.720784) scale(-1, -1) rotate(-53.000000) translate(-206.883629, -63.720784) " cx="206.883629" cy="63.720784" rx="1.88137599" ry="1.88103939"></ellipse>
                <ellipse id="Oval" fill="#170A59" transform="translate(150.789152, 87.827111) scale(-1, 1) rotate(-206.000000) translate(-150.789152, -87.827111) " cx="150.789152" cy="87.8271109" rx="1.88083175" ry="1.88158357"></ellipse>
                <ellipse id="Oval" fill="#170A59" opacity="0.93" transform="translate(180.360173, 82.319587) scale(-1, 1) rotate(-105.000000) translate(-180.360173, -82.319587) " cx="180.360173" cy="82.3195867" rx="2.19535914" ry="2.19412532"></ellipse>
                <ellipse id="Oval" fill="#170A59" opacity="0.79" transform="translate(134.939752, 86.524814) scale(-1, 1) rotate(-159.000000) translate(-134.939752, -86.524814) " cx="134.939752" cy="86.5248142" rx="2.82113084" ry="2.82249209"></ellipse>
                <ellipse id="Oval" fill="#170A59" opacity="0.95" transform="translate(160.436811, 56.965008) scale(-1, 1) rotate(-280.000000) translate(-160.436811, -56.965008) " cx="160.436811" cy="56.9650081" rx="2.19541159" ry="2.19407281"></ellipse>
                <polygon id="Rectangle" fill="#F8DD74" transform="translate(19.590910, 104.951372) rotate(-45.000000) translate(-19.590910, -104.951372) " points="5.79986558 91.1603269 33.3909104 91.1513717 33.3819551 118.742416 5.79091036 118.751372"></polygon>
                <polygon id="Rectangle" fill="#170A59" transform="translate(58.456582, 78.941843) rotate(-45.000000) translate(-58.456582, -78.941843) " points="52.5013581 72.9866191 64.4156729 72.9827521 64.4118059 84.8970669 52.4974911 84.9009339"></polygon>
                <polygon id="Rectangle" fill="#F8DD74" opacity="0.707356771" transform="translate(127.527273, 116.527273) rotate(-45.000000) translate(-127.527273, -116.527273) " points="120.004885 109.004885 135.054545 109 135.049661 124.049661 120 124.054545"></polygon>
                <polygon id="Rectangle" fill="#F8DD74" opacity="0.306477865" transform="translate(223.654417, 15.852632) rotate(-30.000000) translate(-223.654417, -15.852632) " points="212.661555 4.85977054 234.654417 4.85263232 234.647279 26.8454941 212.654417 26.8526323"></polygon>
                <polygon id="Rectangle" fill="#170A59" opacity="0.768787202" transform="translate(88.977273, 29.977273) rotate(-45.000000) translate(-88.977273, -29.977273) " points="78.0071235 19.0071235 99.9545455 19 99.947422 40.947422 78 40.9545455"></polygon>
                <polygon id="Rectangle" fill="#F8DD74" opacity="0.825567336" transform="translate(317.352104, 55.396826) rotate(-65.000000) translate(-317.352104, -55.396826) " points="309.827575 47.8754367 324.880376 47.8716948 324.876634 62.9182158 309.823833 62.9219577"></polygon>
                <polygon id="Rectangle" fill="#170A59" opacity="0.290945871" transform="translate(321.113298, 116.103136) rotate(-24.000000) translate(-321.113298, -116.103136) " points="310.144618 105.129688 332.087273 105.124395 332.081979 127.076583 310.139324 127.081877"></polygon>
                <path d="M0,208.647114 L0,208.647114 C10.4562477,194.666456 26.9470539,185.647114 45.5,185.647114 C64.0529461,185.647114 80.5437523,194.666456 91,208.647114" id="Path" stroke="#170A59" stroke-width="3"></path>
                <path d="M207.818576,152.125141 C218.304523,138.397885 234.838647,129.53933 253.437586,129.534208 C262.700701,129.53166 271.450431,131.725479 279.194944,135.623665" id="Path" stroke="#170A59" stroke-width="3" transform="translate(243.506760, 140.829674) rotate(-29.000000) translate(-243.506760, -140.829674) "></path>
                <path d="M2.12741798,160.312461 C12.6058318,146.591171 29.1351916,137.741901 47.7343119,137.747127 C61.8889551,137.751109 74.8477182,142.882757 84.8547967,151.385701" id="Path" stroke="#F8DD74" stroke-width="3" transform="translate(43.491107, 149.029794) rotate(-330.000000) translate(-43.491107, -149.029794) "></path>
                <path d="M93.0938673,104.970868 C101.625926,102.799472 110.822542,101.617716 120.409204,101.620406 C140.357374,101.626019 158.619598,106.759159 172.721618,115.263253" id="Path" stroke="#F8DD74" stroke-width="3" transform="translate(132.907743, 108.441830) rotate(-330.000000) translate(-132.907743, -108.441830) "></path>
                <path d="M255.281581,132.562038 C259.916399,132.56074 264.460079,132.83602 268.881619,133.365897 C283.496478,135.117341 296.776892,139.650387 307.603315,146.171051" id="Path" stroke="#F8DD74" stroke-width="3" transform="translate(281.442448, 139.366545) rotate(-60.000000) translate(-281.442448, -139.366545) "></path>
                <path d="M27.9635476,149.459376 L27.9635476,149.459376 C47.6268709,135.740668 78.641978,126.895471 113.538257,126.905273 C148.434536,126.915092 179.45462,135.777729 199.125657,149.507495" id="Path" stroke="#170A59" stroke-width="3" transform="translate(113.544603, 138.206384) rotate(30.000000) translate(-113.544603, -138.206384) "></path>
            </g>
        </g>
    </g>
</svg>